<svg width="700" height="65" viewBox="0 0 700 65" fill="none" xmlns="http://www.w3.org/2000/svg">
<path d="M0.5 4C0.5 2.067 2.067 0.5 4 0.5H696C697.933 0.5 699.5 2.06701 699.5 4V64.5H0.5V4Z" fill="black"/>
<path d="M32 46.5C24.268 46.5 18 40.232 18 32.5C18 24.768 24.268 18.5 32 18.5C39.732 18.5 46 24.768 46 32.5C46 40.232 39.732 46.5 32 46.5ZM32 48.5C40.8366 48.5 48 41.3366 48 32.5C48 23.6634 40.8366 16.5 32 16.5C23.1634 16.5 16 23.6634 16 32.5C16 41.3366 23.1634 48.5 32 48.5Z" fill="#DAFF01"/>
<path d="M37.9393 26.4393C37.9252 26.4535 37.9119 26.4685 37.8995 26.4842L30.9548 35.3335L26.7678 31.1464C26.182 30.5607 25.2322 30.5607 24.6464 31.1464C24.0606 31.7322 24.0606 32.682 24.6464 33.2678L29.9393 38.5607C30.5251 39.1464 31.4749 39.1464 32.0606 38.5607C32.0737 38.5476 32.086 38.5339 32.0975 38.5195L40.0819 28.5389C40.6463 27.9516 40.6392 27.0179 40.0606 26.4393C39.4749 25.8536 38.5251 25.8536 37.9393 26.4393Z" fill="#DAFF01"/>
<path d="M69.598 39.5V24.9545H78.7173V26.8438H71.7926V31.2756H78.2415V33.1577H71.7926V37.6108H78.8026V39.5H69.598ZM87.9059 32.4332V34.2727H81.457V32.4332H87.9059ZM90.7362 39.5V28.5909H92.7745V30.3665H92.9094C93.1367 29.7652 93.5084 29.2964 94.0245 28.9602C94.5406 28.6193 95.1585 28.4489 95.8782 28.4489C96.6074 28.4489 97.2182 28.6193 97.7106 28.9602C98.2077 29.3011 98.5747 29.7699 98.8114 30.3665H98.9251C99.1855 29.7841 99.5998 29.3201 100.168 28.9744C100.736 28.6241 101.413 28.4489 102.199 28.4489C103.189 28.4489 103.996 28.759 104.621 29.3793C105.251 29.9995 105.566 30.9347 105.566 32.1847V39.5H103.442V32.3835C103.442 31.6449 103.241 31.1098 102.838 30.7784C102.436 30.447 101.955 30.2812 101.397 30.2812C100.705 30.2812 100.168 30.4943 99.7844 30.9205C99.4009 31.3419 99.2092 31.884 99.2092 32.5469V39.5H97.0927V32.2486C97.0927 31.6567 96.908 31.1809 96.5387 30.821C96.1694 30.4612 95.6888 30.2812 95.0969 30.2812C94.6945 30.2812 94.3228 30.3878 93.9819 30.6009C93.6457 30.8092 93.3735 31.1004 93.1651 31.4744C92.9615 31.8485 92.8597 32.2817 92.8597 32.7741V39.5H90.7362ZM111.587 39.7415C110.895 39.7415 110.27 39.6136 109.712 39.358C109.153 39.0975 108.71 38.7211 108.384 38.2287C108.062 37.7363 107.901 37.1326 107.901 36.4176C107.901 35.8021 108.019 35.2955 108.256 34.8977C108.492 34.5 108.812 34.1851 109.214 33.9531C109.617 33.7211 110.067 33.5459 110.564 33.4276C111.061 33.3092 111.568 33.2192 112.084 33.1577C112.737 33.0819 113.268 33.0204 113.675 32.973C114.082 32.9209 114.378 32.8381 114.562 32.7244C114.747 32.6108 114.839 32.4261 114.839 32.1705V32.1207C114.839 31.5005 114.664 31.0199 114.314 30.679C113.968 30.3381 113.452 30.1676 112.766 30.1676C112.051 30.1676 111.487 30.3262 111.075 30.6435C110.668 30.956 110.386 31.304 110.23 31.6875L108.234 31.233C108.471 30.5701 108.817 30.035 109.271 29.6278C109.731 29.2159 110.259 28.9176 110.855 28.733C111.452 28.5436 112.079 28.4489 112.737 28.4489C113.173 28.4489 113.634 28.5009 114.122 28.6051C114.615 28.7045 115.074 28.8892 115.5 29.1591C115.931 29.429 116.284 29.8149 116.558 30.3168C116.833 30.8139 116.97 31.4602 116.97 32.2557V39.5H114.896V38.0085H114.811C114.674 38.2831 114.468 38.553 114.193 38.8182C113.919 39.0833 113.566 39.3035 113.135 39.4787C112.704 39.6539 112.188 39.7415 111.587 39.7415ZM112.048 38.0369C112.635 38.0369 113.137 37.9209 113.554 37.6889C113.975 37.4569 114.295 37.1539 114.513 36.7798C114.735 36.401 114.847 35.9962 114.847 35.5653V34.1591C114.771 34.2348 114.624 34.3059 114.406 34.3722C114.193 34.4337 113.949 34.4882 113.675 34.5355C113.4 34.5781 113.133 34.6184 112.872 34.6562C112.612 34.6894 112.394 34.7178 112.219 34.7415C111.807 34.7936 111.43 34.8812 111.089 35.0043C110.753 35.1274 110.483 35.3049 110.28 35.5369C110.081 35.7642 109.982 36.0672 109.982 36.446C109.982 36.9716 110.176 37.3693 110.564 37.6392C110.952 37.9044 111.447 38.0369 112.048 38.0369ZM119.799 39.5V28.5909H121.922V39.5H119.799ZM120.871 26.9077C120.502 26.9077 120.185 26.7846 119.919 26.5384C119.659 26.2874 119.529 25.9891 119.529 25.6435C119.529 25.2931 119.659 24.9948 119.919 24.7486C120.185 24.4976 120.502 24.3722 120.871 24.3722C121.24 24.3722 121.555 24.4976 121.816 24.7486C122.081 24.9948 122.213 25.2931 122.213 25.6435C122.213 25.9891 122.081 26.2874 121.816 26.5384C121.555 26.7846 121.24 26.9077 120.871 26.9077ZM126.903 24.9545V39.5H124.779V24.9545H126.903ZM139.648 39.7202C138.592 39.7202 137.683 39.4811 136.92 39.0028C136.163 38.5199 135.58 37.8546 135.173 37.0071C134.766 36.1596 134.562 35.1889 134.562 34.0952C134.562 32.9872 134.771 32.0095 135.188 31.1619C135.604 30.3097 136.191 29.6444 136.949 29.1662C137.706 28.688 138.599 28.4489 139.626 28.4489C140.455 28.4489 141.194 28.6027 141.842 28.9105C142.491 29.2135 143.014 29.6397 143.412 30.1889C143.814 30.7382 144.054 31.3797 144.129 32.1136H142.062C141.949 31.6023 141.688 31.1619 141.281 30.7926C140.879 30.4233 140.339 30.2386 139.662 30.2386C139.07 30.2386 138.552 30.3949 138.107 30.7074C137.666 31.0152 137.323 31.4555 137.077 32.0284C136.83 32.5966 136.707 33.2689 136.707 34.0455C136.707 34.8409 136.828 35.5275 137.07 36.1051C137.311 36.6828 137.652 37.1302 138.092 37.4474C138.537 37.7647 139.061 37.9233 139.662 37.9233C140.064 37.9233 140.429 37.8499 140.756 37.7031C141.087 37.5516 141.364 37.3362 141.587 37.0568C141.814 36.7775 141.973 36.4413 142.062 36.0483H144.129C144.054 36.7538 143.824 37.3835 143.44 37.9375C143.057 38.4915 142.543 38.9271 141.899 39.2443C141.26 39.5616 140.509 39.7202 139.648 39.7202ZM149.575 39.7415C148.884 39.7415 148.259 39.6136 147.7 39.358C147.141 39.0975 146.699 38.7211 146.372 38.2287C146.05 37.7363 145.889 37.1326 145.889 36.4176C145.889 35.8021 146.007 35.2955 146.244 34.8977C146.481 34.5 146.8 34.1851 147.203 33.9531C147.605 33.7211 148.055 33.5459 148.552 33.4276C149.049 33.3092 149.556 33.2192 150.072 33.1577C150.725 33.0819 151.256 33.0204 151.663 32.973C152.07 32.9209 152.366 32.8381 152.551 32.7244C152.735 32.6108 152.828 32.4261 152.828 32.1705V32.1207C152.828 31.5005 152.653 31.0199 152.302 30.679C151.957 30.3381 151.44 30.1676 150.754 30.1676C150.039 30.1676 149.475 30.3262 149.064 30.6435C148.656 30.956 148.375 31.304 148.218 31.6875L146.223 31.233C146.459 30.5701 146.805 30.035 147.26 29.6278C147.719 29.2159 148.247 28.9176 148.843 28.733C149.44 28.5436 150.067 28.4489 150.725 28.4489C151.161 28.4489 151.623 28.5009 152.11 28.6051C152.603 28.7045 153.062 28.8892 153.488 29.1591C153.919 29.429 154.272 29.8149 154.547 30.3168C154.821 30.8139 154.958 31.4602 154.958 32.2557V39.5H152.885V38.0085H152.799C152.662 38.2831 152.456 38.553 152.181 38.8182C151.907 39.0833 151.554 39.3035 151.123 39.4787C150.692 39.6539 150.176 39.7415 149.575 39.7415ZM150.037 38.0369C150.624 38.0369 151.126 37.9209 151.542 37.6889C151.964 37.4569 152.283 37.1539 152.501 36.7798C152.724 36.401 152.835 35.9962 152.835 35.5653V34.1591C152.759 34.2348 152.612 34.3059 152.395 34.3722C152.181 34.4337 151.938 34.4882 151.663 34.5355C151.388 34.5781 151.121 34.6184 150.86 34.6562C150.6 34.6894 150.382 34.7178 150.207 34.7415C149.795 34.7936 149.419 34.8812 149.078 35.0043C148.742 35.1274 148.472 35.3049 148.268 35.5369C148.069 35.7642 147.97 36.0672 147.97 36.446C147.97 36.9716 148.164 37.3693 148.552 37.6392C148.94 37.9044 149.435 38.0369 150.037 38.0369ZM161.871 39.7131C160.99 39.7131 160.204 39.4882 159.513 39.0384C158.826 38.5838 158.286 37.9375 157.893 37.0994C157.505 36.2566 157.311 35.2457 157.311 34.0668C157.311 32.8878 157.508 31.8793 157.901 31.0412C158.298 30.2031 158.843 29.5616 159.534 29.1165C160.225 28.6714 161.009 28.4489 161.885 28.4489C162.562 28.4489 163.107 28.5625 163.518 28.7898C163.935 29.0123 164.257 29.2727 164.484 29.571C164.716 29.8693 164.896 30.1321 165.024 30.3594H165.152V24.9545H167.276V39.5H165.202V37.8026H165.024C164.896 38.0346 164.712 38.2997 164.47 38.598C164.233 38.8963 163.907 39.1567 163.49 39.3793C163.073 39.6018 162.534 39.7131 161.871 39.7131ZM162.339 37.902C162.95 37.902 163.466 37.741 163.888 37.419C164.314 37.0923 164.636 36.6402 164.854 36.0625C165.076 35.4848 165.188 34.8125 165.188 34.0455C165.188 33.2879 165.079 32.625 164.861 32.0568C164.643 31.4886 164.323 31.0459 163.902 30.7287C163.481 30.4115 162.96 30.2528 162.339 30.2528C161.7 30.2528 161.168 30.4186 160.741 30.75C160.315 31.0814 159.993 31.5336 159.776 32.1065C159.563 32.6795 159.456 33.3258 159.456 34.0455C159.456 34.7746 159.565 35.4304 159.783 36.0128C160 36.5952 160.322 37.0568 160.749 37.3977C161.179 37.7339 161.71 37.902 162.339 37.902ZM173.481 39.7415C172.79 39.7415 172.165 39.6136 171.606 39.358C171.047 39.0975 170.605 38.7211 170.278 38.2287C169.956 37.7363 169.795 37.1326 169.795 36.4176C169.795 35.8021 169.913 35.2955 170.15 34.8977C170.387 34.5 170.707 34.1851 171.109 33.9531C171.511 33.7211 171.961 33.5459 172.458 33.4276C172.956 33.3092 173.462 33.2192 173.978 33.1577C174.632 33.0819 175.162 33.0204 175.569 32.973C175.976 32.9209 176.272 32.8381 176.457 32.7244C176.642 32.6108 176.734 32.4261 176.734 32.1705V32.1207C176.734 31.5005 176.559 31.0199 176.208 30.679C175.863 30.3381 175.347 30.1676 174.66 30.1676C173.945 30.1676 173.382 30.3262 172.97 30.6435C172.563 30.956 172.281 31.304 172.125 31.6875L170.129 31.233C170.366 30.5701 170.711 30.035 171.166 29.6278C171.625 29.2159 172.153 28.9176 172.75 28.733C173.346 28.5436 173.974 28.4489 174.632 28.4489C175.067 28.4489 175.529 28.5009 176.017 28.6051C176.509 28.7045 176.968 28.8892 177.395 29.1591C177.825 29.429 178.178 29.8149 178.453 30.3168C178.727 30.8139 178.865 31.4602 178.865 32.2557V39.5H176.791V38.0085H176.706C176.568 38.2831 176.362 38.553 176.088 38.8182C175.813 39.0833 175.46 39.3035 175.029 39.4787C174.599 39.6539 174.083 39.7415 173.481 39.7415ZM173.943 38.0369C174.53 38.0369 175.032 37.9209 175.449 37.6889C175.87 37.4569 176.19 37.1539 176.407 36.7798C176.63 36.401 176.741 35.9962 176.741 35.5653V34.1591C176.665 34.2348 176.519 34.3059 176.301 34.3722C176.088 34.4337 175.844 34.4882 175.569 34.5355C175.295 34.5781 175.027 34.6184 174.767 34.6562C174.506 34.6894 174.288 34.7178 174.113 34.7415C173.701 34.7936 173.325 34.8812 172.984 35.0043C172.648 35.1274 172.378 35.3049 172.174 35.5369C171.975 35.7642 171.876 36.0672 171.876 36.446C171.876 36.9716 172.07 37.3693 172.458 37.6392C172.847 37.9044 173.342 38.0369 173.943 38.0369ZM189.868 31.2543L187.943 31.5952C187.863 31.349 187.735 31.1146 187.56 30.892C187.389 30.6695 187.157 30.4872 186.864 30.3452C186.57 30.2031 186.203 30.1321 185.763 30.1321C185.161 30.1321 184.66 30.267 184.257 30.5369C183.855 30.8021 183.653 31.1454 183.653 31.5668C183.653 31.9313 183.788 32.2249 184.058 32.4474C184.328 32.67 184.764 32.8523 185.365 32.9943L187.098 33.392C188.102 33.6241 188.85 33.9815 189.342 34.4645C189.835 34.9474 190.081 35.5748 190.081 36.3466C190.081 37 189.892 37.5824 189.513 38.0938C189.139 38.6004 188.616 38.9981 187.943 39.2869C187.276 39.5758 186.501 39.7202 185.621 39.7202C184.399 39.7202 183.402 39.4598 182.631 38.9389C181.859 38.4134 181.385 37.6676 181.21 36.7017L183.263 36.3892C183.391 36.9242 183.653 37.3291 184.051 37.6037C184.449 37.8736 184.967 38.0085 185.607 38.0085C186.303 38.0085 186.859 37.8641 187.276 37.5753C187.692 37.2817 187.901 36.9242 187.901 36.5028C187.901 36.1619 187.773 35.8755 187.517 35.6435C187.266 35.4115 186.88 35.2363 186.359 35.1179L184.513 34.7131C183.495 34.4811 182.742 34.1117 182.254 33.6051C181.771 33.0985 181.53 32.4569 181.53 31.6804C181.53 31.0365 181.71 30.473 182.07 29.9901C182.429 29.5071 182.927 29.1307 183.561 28.8608C184.196 28.5862 184.922 28.4489 185.741 28.4489C186.92 28.4489 187.848 28.7045 188.526 29.2159C189.203 29.7225 189.65 30.402 189.868 31.2543ZM197.508 28.5909V30.2955H191.549V28.5909H197.508ZM193.147 25.9773H195.271V36.2969C195.271 36.7088 195.333 37.0189 195.456 37.2273C195.579 37.4309 195.737 37.5705 195.931 37.6463C196.13 37.7173 196.346 37.7528 196.578 37.7528C196.748 37.7528 196.897 37.741 197.025 37.7173C197.153 37.6937 197.252 37.6747 197.324 37.6605L197.707 39.4148C197.584 39.4621 197.409 39.5095 197.181 39.5568C196.954 39.6089 196.67 39.6373 196.329 39.642C195.77 39.6515 195.25 39.5521 194.767 39.3438C194.284 39.1354 193.893 38.8134 193.595 38.3778C193.297 37.9422 193.147 37.3954 193.147 36.7372V25.9773ZM199.857 39.5V28.5909H201.91V30.3239H202.023C202.222 29.7367 202.573 29.2751 203.075 28.9389C203.581 28.598 204.154 28.4276 204.793 28.4276C204.926 28.4276 205.082 28.4323 205.262 28.4418C205.447 28.4512 205.591 28.4631 205.695 28.4773V30.5085C205.61 30.4848 205.459 30.4588 205.241 30.4304C205.023 30.3973 204.805 30.3807 204.587 30.3807C204.085 30.3807 203.638 30.4872 203.245 30.7003C202.857 30.9086 202.549 31.1998 202.322 31.5739C202.094 31.9432 201.981 32.3646 201.981 32.8381V39.5H199.857ZM210.61 39.7415C209.919 39.7415 209.294 39.6136 208.735 39.358C208.176 39.0975 207.734 38.7211 207.407 38.2287C207.085 37.7363 206.924 37.1326 206.924 36.4176C206.924 35.8021 207.042 35.2955 207.279 34.8977C207.516 34.5 207.835 34.1851 208.238 33.9531C208.64 33.7211 209.09 33.5459 209.587 33.4276C210.085 33.3092 210.591 33.2192 211.107 33.1577C211.761 33.0819 212.291 33.0204 212.698 32.973C213.105 32.9209 213.401 32.8381 213.586 32.7244C213.771 32.6108 213.863 32.4261 213.863 32.1705V32.1207C213.863 31.5005 213.688 31.0199 213.337 30.679C212.992 30.3381 212.476 30.1676 211.789 30.1676C211.074 30.1676 210.511 30.3262 210.099 30.6435C209.692 30.956 209.41 31.304 209.254 31.6875L207.258 31.233C207.495 30.5701 207.84 30.035 208.295 29.6278C208.754 29.2159 209.282 28.9176 209.879 28.733C210.475 28.5436 211.103 28.4489 211.761 28.4489C212.196 28.4489 212.658 28.5009 213.146 28.6051C213.638 28.7045 214.097 28.8892 214.523 29.1591C214.954 29.429 215.307 29.8149 215.582 30.3168C215.856 30.8139 215.994 31.4602 215.994 32.2557V39.5H213.92V38.0085H213.835C213.697 38.2831 213.491 38.553 213.217 38.8182C212.942 39.0833 212.589 39.3035 212.158 39.4787C211.728 39.6539 211.211 39.7415 210.61 39.7415ZM211.072 38.0369C211.659 38.0369 212.161 37.9209 212.577 37.6889C212.999 37.4569 213.318 37.1539 213.536 36.7798C213.759 36.401 213.87 35.9962 213.87 35.5653V34.1591C213.794 34.2348 213.647 34.3059 213.43 34.3722C213.217 34.4337 212.973 34.4882 212.698 34.5355C212.424 34.5781 212.156 34.6184 211.896 34.6562C211.635 34.6894 211.417 34.7178 211.242 34.7415C210.83 34.7936 210.454 34.8812 210.113 35.0043C209.777 35.1274 209.507 35.3049 209.303 35.5369C209.104 35.7642 209.005 36.0672 209.005 36.446C209.005 36.9716 209.199 37.3693 209.587 37.6392C209.976 37.9044 210.47 38.0369 211.072 38.0369ZM222.906 39.7131C222.025 39.7131 221.239 39.4882 220.548 39.0384C219.861 38.5838 219.322 37.9375 218.929 37.0994C218.54 36.2566 218.346 35.2457 218.346 34.0668C218.346 32.8878 218.543 31.8793 218.936 31.0412C219.333 30.2031 219.878 29.5616 220.569 29.1165C221.261 28.6714 222.044 28.4489 222.92 28.4489C223.597 28.4489 224.142 28.5625 224.554 28.7898C224.97 29.0123 225.292 29.2727 225.52 29.571C225.752 29.8693 225.931 30.1321 226.059 30.3594H226.187V24.9545H228.311V39.5H226.237V37.8026H226.059C225.931 38.0346 225.747 38.2997 225.505 38.598C225.269 38.8963 224.942 39.1567 224.525 39.3793C224.109 39.6018 223.569 39.7131 222.906 39.7131ZM223.375 37.902C223.985 37.902 224.502 37.741 224.923 37.419C225.349 37.0923 225.671 36.6402 225.889 36.0625C226.111 35.4848 226.223 34.8125 226.223 34.0455C226.223 33.2879 226.114 32.625 225.896 32.0568C225.678 31.4886 225.359 31.0459 224.937 30.7287C224.516 30.4115 223.995 30.2528 223.375 30.2528C222.735 30.2528 222.203 30.4186 221.777 30.75C221.35 31.0814 221.029 31.5336 220.811 32.1065C220.598 32.6795 220.491 33.3258 220.491 34.0455C220.491 34.7746 220.6 35.4304 220.818 36.0128C221.036 36.5952 221.358 37.0568 221.784 37.3977C222.215 37.7339 222.745 37.902 223.375 37.902ZM235.937 39.7202C234.914 39.7202 234.022 39.4858 233.259 39.017C232.497 38.5483 231.905 37.8925 231.484 37.0497C231.062 36.2069 230.852 35.2221 230.852 34.0952C230.852 32.9635 231.062 31.974 231.484 31.1264C231.905 30.2789 232.497 29.6207 233.259 29.152C234.022 28.6832 234.914 28.4489 235.937 28.4489C236.96 28.4489 237.852 28.6832 238.614 29.152C239.377 29.6207 239.969 30.2789 240.39 31.1264C240.811 31.974 241.022 32.9635 241.022 34.0952C241.022 35.2221 240.811 36.2069 240.39 37.0497C239.969 37.8925 239.377 38.5483 238.614 39.017C237.852 39.4858 236.96 39.7202 235.937 39.7202ZM235.944 37.9375C236.607 37.9375 237.156 37.7623 237.592 37.4119C238.027 37.0616 238.349 36.5952 238.558 36.0128C238.771 35.4304 238.877 34.7888 238.877 34.0881C238.877 33.392 238.771 32.7528 238.558 32.1705C238.349 31.5833 238.027 31.1122 237.592 30.7571C237.156 30.402 236.607 30.2244 235.944 30.2244C235.276 30.2244 234.722 30.402 234.282 30.7571C233.846 31.1122 233.522 31.5833 233.309 32.1705C233.101 32.7528 232.996 33.392 232.996 34.0881C232.996 34.7888 233.101 35.4304 233.309 36.0128C233.522 36.5952 233.846 37.0616 234.282 37.4119C234.722 37.7623 235.276 37.9375 235.944 37.9375ZM253.281 39.7202C252.225 39.7202 251.316 39.4811 250.553 39.0028C249.796 38.5199 249.213 37.8546 248.806 37.0071C248.399 36.1596 248.195 35.1889 248.195 34.0952C248.195 32.9872 248.404 32.0095 248.82 31.1619C249.237 30.3097 249.824 29.6444 250.582 29.1662C251.339 28.688 252.232 28.4489 253.259 28.4489C254.088 28.4489 254.826 28.6027 255.475 28.9105C256.124 29.2135 256.647 29.6397 257.045 30.1889C257.447 30.7382 257.686 31.3797 257.762 32.1136H255.695C255.582 31.6023 255.321 31.1619 254.914 30.7926C254.512 30.4233 253.972 30.2386 253.295 30.2386C252.703 30.2386 252.184 30.3949 251.739 30.7074C251.299 31.0152 250.956 31.4555 250.71 32.0284C250.463 32.5966 250.34 33.2689 250.34 34.0455C250.34 34.8409 250.461 35.5275 250.702 36.1051C250.944 36.6828 251.285 37.1302 251.725 37.4474C252.17 37.7647 252.693 37.9233 253.295 37.9233C253.697 37.9233 254.062 37.8499 254.388 37.7031C254.72 37.5516 254.997 37.3362 255.219 37.0568C255.447 36.7775 255.605 36.4413 255.695 36.0483H257.762C257.686 36.7538 257.457 37.3835 257.073 37.9375C256.69 38.4915 256.176 38.9271 255.532 39.2443C254.893 39.5616 254.142 39.7202 253.281 39.7202ZM264.628 39.7202C263.605 39.7202 262.713 39.4858 261.951 39.017C261.188 38.5483 260.596 37.8925 260.175 37.0497C259.754 36.2069 259.543 35.2221 259.543 34.0952C259.543 32.9635 259.754 31.974 260.175 31.1264C260.596 30.2789 261.188 29.6207 261.951 29.152C262.713 28.6832 263.605 28.4489 264.628 28.4489C265.651 28.4489 266.543 28.6832 267.306 29.152C268.068 29.6207 268.66 30.2789 269.081 31.1264C269.503 31.974 269.713 32.9635 269.713 34.0952C269.713 35.2221 269.503 36.2069 269.081 37.0497C268.66 37.8925 268.068 38.5483 267.306 39.017C266.543 39.4858 265.651 39.7202 264.628 39.7202ZM264.635 37.9375C265.298 37.9375 265.847 37.7623 266.283 37.4119C266.719 37.0616 267.041 36.5952 267.249 36.0128C267.462 35.4304 267.569 34.7888 267.569 34.0881C267.569 33.392 267.462 32.7528 267.249 32.1705C267.041 31.5833 266.719 31.1122 266.283 30.7571C265.847 30.402 265.298 30.2244 264.635 30.2244C263.968 30.2244 263.414 30.402 262.973 30.7571C262.538 31.1122 262.213 31.5833 262 32.1705C261.792 32.7528 261.688 33.392 261.688 34.0881C261.688 34.7888 261.792 35.4304 262 36.0128C262.213 36.5952 262.538 37.0616 262.973 37.4119C263.414 37.7623 263.968 37.9375 264.635 37.9375ZM272.084 39.5V28.5909H274.122V30.3665H274.257C274.484 29.7652 274.856 29.2964 275.372 28.9602C275.888 28.6193 276.506 28.4489 277.226 28.4489C277.955 28.4489 278.566 28.6193 279.058 28.9602C279.555 29.3011 279.922 29.7699 280.159 30.3665H280.273C280.533 29.7841 280.947 29.3201 281.516 28.9744C282.084 28.6241 282.761 28.4489 283.547 28.4489C284.536 28.4489 285.344 28.759 285.969 29.3793C286.598 29.9995 286.913 30.9347 286.913 32.1847V39.5H284.79V32.3835C284.79 31.6449 284.589 31.1098 284.186 30.7784C283.784 30.447 283.303 30.2812 282.744 30.2812C282.053 30.2812 281.516 30.4943 281.132 30.9205C280.749 31.3419 280.557 31.884 280.557 32.5469V39.5H278.44V32.2486C278.44 31.6567 278.256 31.1809 277.886 30.821C277.517 30.4612 277.036 30.2812 276.445 30.2812C276.042 30.2812 275.67 30.3878 275.33 30.6009C274.993 30.8092 274.721 31.1004 274.513 31.4744C274.309 31.8485 274.207 32.2817 274.207 32.7741V39.5H272.084ZM303.227 31.2543L301.303 31.5952C301.222 31.349 301.094 31.1146 300.919 30.892C300.749 30.6695 300.517 30.4872 300.223 30.3452C299.929 30.2031 299.563 30.1321 299.122 30.1321C298.521 30.1321 298.019 30.267 297.616 30.5369C297.214 30.8021 297.013 31.1454 297.013 31.5668C297.013 31.9313 297.148 32.2249 297.418 32.4474C297.688 32.67 298.123 32.8523 298.724 32.9943L300.457 33.392C301.461 33.6241 302.209 33.9815 302.702 34.4645C303.194 34.9474 303.44 35.5748 303.44 36.3466C303.44 37 303.251 37.5824 302.872 38.0938C302.498 38.6004 301.975 38.9981 301.303 39.2869C300.635 39.5758 299.861 39.7202 298.98 39.7202C297.759 39.7202 296.762 39.4598 295.99 38.9389C295.218 38.4134 294.745 37.6676 294.57 36.7017L296.622 36.3892C296.75 36.9242 297.013 37.3291 297.411 37.6037C297.808 37.8736 298.327 38.0085 298.966 38.0085C299.662 38.0085 300.218 37.8641 300.635 37.5753C301.052 37.2817 301.26 36.9242 301.26 36.5028C301.26 36.1619 301.132 35.8755 300.876 35.6435C300.625 35.4115 300.24 35.2363 299.719 35.1179L297.872 34.7131C296.854 34.4811 296.101 34.1117 295.614 33.6051C295.131 33.0985 294.889 32.4569 294.889 31.6804C294.889 31.0365 295.069 30.473 295.429 29.9901C295.789 29.5071 296.286 29.1307 296.92 28.8608C297.555 28.5862 298.282 28.4489 299.101 28.4489C300.28 28.4489 301.208 28.7045 301.885 29.2159C302.562 29.7225 303.009 30.402 303.227 31.2543ZM312.686 34.9759V28.5909H314.816V39.5H312.728V37.6108H312.615C312.364 38.1932 311.961 38.6785 311.407 39.0668C310.858 39.4503 310.174 39.642 309.355 39.642C308.654 39.642 308.034 39.4882 307.494 39.1804C306.959 38.8679 306.538 38.4062 306.23 37.7955C305.927 37.1847 305.775 36.4295 305.775 35.5298V28.5909H307.899V35.2741C307.899 36.0175 308.105 36.6094 308.517 37.0497C308.929 37.4901 309.464 37.7102 310.122 37.7102C310.52 37.7102 310.915 37.6108 311.308 37.4119C311.706 37.2131 312.035 36.9124 312.295 36.5099C312.56 36.1075 312.69 35.5961 312.686 34.9759ZM322.265 39.7202C321.209 39.7202 320.3 39.4811 319.538 39.0028C318.78 38.5199 318.198 37.8546 317.79 37.0071C317.383 36.1596 317.18 35.1889 317.18 34.0952C317.18 32.9872 317.388 32.0095 317.805 31.1619C318.221 30.3097 318.808 29.6444 319.566 29.1662C320.324 28.688 321.216 28.4489 322.244 28.4489C323.072 28.4489 323.811 28.6027 324.46 28.9105C325.108 29.2135 325.631 29.6397 326.029 30.1889C326.432 30.7382 326.671 31.3797 326.746 32.1136H324.68C324.566 31.6023 324.306 31.1619 323.898 30.7926C323.496 30.4233 322.956 30.2386 322.279 30.2386C321.687 30.2386 321.169 30.3949 320.724 30.7074C320.283 31.0152 319.94 31.4555 319.694 32.0284C319.448 32.5966 319.325 33.2689 319.325 34.0455C319.325 34.8409 319.445 35.5275 319.687 36.1051C319.928 36.6828 320.269 37.1302 320.71 37.4474C321.155 37.7647 321.678 37.9233 322.279 37.9233C322.682 37.9233 323.046 37.8499 323.373 37.7031C323.704 37.5516 323.981 37.3362 324.204 37.0568C324.431 36.7775 324.59 36.4413 324.68 36.0483H326.746C326.671 36.7538 326.441 37.3835 326.058 37.9375C325.674 38.4915 325.16 38.9271 324.516 39.2443C323.877 39.5616 323.127 39.7202 322.265 39.7202ZM333.719 39.7202C332.644 39.7202 331.719 39.4905 330.942 39.0312C330.17 38.5672 329.574 37.9162 329.152 37.0781C328.736 36.2353 328.527 35.2481 328.527 34.1165C328.527 32.9991 328.736 32.0142 329.152 31.1619C329.574 30.3097 330.161 29.6444 330.914 29.1662C331.671 28.688 332.557 28.4489 333.57 28.4489C334.185 28.4489 334.782 28.5507 335.36 28.7543C335.937 28.9579 336.456 29.2775 336.915 29.7131C337.374 30.1487 337.737 30.7145 338.002 31.4105C338.267 32.1018 338.4 32.9422 338.4 33.9318V34.6847H329.728V33.0938H336.319C336.319 32.535 336.205 32.0402 335.978 31.6094C335.75 31.1738 335.431 30.8305 335.019 30.5795C334.612 30.3286 334.133 30.2031 333.584 30.2031C332.988 30.2031 332.467 30.3499 332.022 30.6435C331.581 30.9323 331.24 31.3111 330.999 31.7798C330.762 32.2438 330.644 32.7481 330.644 33.2926V34.5355C330.644 35.2647 330.772 35.8849 331.027 36.3963C331.288 36.9077 331.65 37.2983 332.114 37.5682C332.578 37.8333 333.12 37.9659 333.74 37.9659C334.143 37.9659 334.51 37.9091 334.841 37.7955C335.173 37.6771 335.459 37.5019 335.701 37.2699C335.942 37.0379 336.127 36.7514 336.255 36.4105L338.265 36.7727C338.104 37.3646 337.815 37.883 337.398 38.3281C336.986 38.7685 336.468 39.1117 335.843 39.358C335.222 39.5994 334.515 39.7202 333.719 39.7202ZM348.93 31.2543L347.006 31.5952C346.925 31.349 346.797 31.1146 346.622 30.892C346.452 30.6695 346.22 30.4872 345.926 30.3452C345.633 30.2031 345.266 30.1321 344.825 30.1321C344.224 30.1321 343.722 30.267 343.32 30.5369C342.917 30.8021 342.716 31.1454 342.716 31.5668C342.716 31.9313 342.851 32.2249 343.121 32.4474C343.391 32.67 343.826 32.8523 344.428 32.9943L346.161 33.392C347.164 33.6241 347.912 33.9815 348.405 34.4645C348.897 34.9474 349.143 35.5748 349.143 36.3466C349.143 37 348.954 37.5824 348.575 38.0938C348.201 38.6004 347.678 38.9981 347.006 39.2869C346.338 39.5758 345.564 39.7202 344.683 39.7202C343.462 39.7202 342.465 39.4598 341.693 38.9389C340.921 38.4134 340.448 37.6676 340.273 36.7017L342.325 36.3892C342.453 36.9242 342.716 37.3291 343.114 37.6037C343.511 37.8736 344.03 38.0085 344.669 38.0085C345.365 38.0085 345.921 37.8641 346.338 37.5753C346.755 37.2817 346.963 36.9242 346.963 36.5028C346.963 36.1619 346.835 35.8755 346.58 35.6435C346.329 35.4115 345.943 35.2363 345.422 35.1179L343.575 34.7131C342.557 34.4811 341.804 34.1117 341.317 33.6051C340.834 33.0985 340.592 32.4569 340.592 31.6804C340.592 31.0365 340.772 30.473 341.132 29.9901C341.492 29.5071 341.989 29.1307 342.624 28.8608C343.258 28.5862 343.985 28.4489 344.804 28.4489C345.983 28.4489 346.911 28.7045 347.588 29.2159C348.265 29.7225 348.713 30.402 348.93 31.2543ZM359.653 31.2543L357.728 31.5952C357.648 31.349 357.52 31.1146 357.345 30.892C357.174 30.6695 356.942 30.4872 356.649 30.3452C356.355 30.2031 355.988 30.1321 355.548 30.1321C354.947 30.1321 354.445 30.267 354.042 30.5369C353.64 30.8021 353.439 31.1454 353.439 31.5668C353.439 31.9313 353.574 32.2249 353.843 32.4474C354.113 32.67 354.549 32.8523 355.15 32.9943L356.883 33.392C357.887 33.6241 358.635 33.9815 359.127 34.4645C359.62 34.9474 359.866 35.5748 359.866 36.3466C359.866 37 359.677 37.5824 359.298 38.0938C358.924 38.6004 358.401 38.9981 357.728 39.2869C357.061 39.5758 356.287 39.7202 355.406 39.7202C354.184 39.7202 353.188 39.4598 352.416 38.9389C351.644 38.4134 351.171 37.6676 350.995 36.7017L353.048 36.3892C353.176 36.9242 353.439 37.3291 353.836 37.6037C354.234 37.8736 354.752 38.0085 355.392 38.0085C356.088 38.0085 356.644 37.8641 357.061 37.5753C357.477 37.2817 357.686 36.9242 357.686 36.5028C357.686 36.1619 357.558 35.8755 357.302 35.6435C357.051 35.4115 356.665 35.2363 356.145 35.1179L354.298 34.7131C353.28 34.4811 352.527 34.1117 352.039 33.6051C351.556 33.0985 351.315 32.4569 351.315 31.6804C351.315 31.0365 351.495 30.473 351.855 29.9901C352.215 29.5071 352.712 29.1307 353.346 28.8608C353.981 28.5862 354.708 28.4489 355.527 28.4489C356.706 28.4489 357.634 28.7045 358.311 29.2159C358.988 29.7225 359.435 30.402 359.653 31.2543ZM366.796 39.7202C365.773 39.7202 364.881 39.4858 364.119 39.017C363.356 38.5483 362.764 37.8925 362.343 37.0497C361.922 36.2069 361.711 35.2221 361.711 34.0952C361.711 32.9635 361.922 31.974 362.343 31.1264C362.764 30.2789 363.356 29.6207 364.119 29.152C364.881 28.6832 365.773 28.4489 366.796 28.4489C367.819 28.4489 368.711 28.6832 369.474 29.152C370.236 29.6207 370.828 30.2789 371.249 31.1264C371.671 31.974 371.881 32.9635 371.881 34.0952C371.881 35.2221 371.671 36.2069 371.249 37.0497C370.828 37.8925 370.236 38.5483 369.474 39.017C368.711 39.4858 367.819 39.7202 366.796 39.7202ZM366.803 37.9375C367.466 37.9375 368.015 37.7623 368.451 37.4119C368.887 37.0616 369.209 36.5952 369.417 36.0128C369.63 35.4304 369.737 34.7888 369.737 34.0881C369.737 33.392 369.63 32.7528 369.417 32.1705C369.209 31.5833 368.887 31.1122 368.451 30.7571C368.015 30.402 367.466 30.2244 366.803 30.2244C366.136 30.2244 365.582 30.402 365.141 30.7571C364.706 31.1122 364.381 31.5833 364.168 32.1705C363.96 32.7528 363.856 33.392 363.856 34.0881C363.856 34.7888 363.96 35.4304 364.168 36.0128C364.381 36.5952 364.706 37.0616 365.141 37.4119C365.582 37.7623 366.136 37.9375 366.803 37.9375ZM376.929 24.9545L376.745 35.3168H374.777L374.593 24.9545H376.929ZM375.765 39.6349C375.372 39.6349 375.035 39.4976 374.756 39.223C374.477 38.9437 374.339 38.6075 374.344 38.2145C374.339 37.8262 374.477 37.4948 374.756 37.2202C375.035 36.9408 375.372 36.8011 375.765 36.8011C376.148 36.8011 376.48 36.9408 376.759 37.2202C377.038 37.4948 377.18 37.8262 377.185 38.2145C377.18 38.4749 377.112 38.714 376.979 38.9318C376.851 39.1449 376.681 39.3153 376.468 39.4432C376.255 39.571 376.02 39.6349 375.765 39.6349Z" fill="white"/>
<path fill-rule="evenodd" clip-rule="evenodd" d="M671 25.5C670.448 24.9477 669.552 24.9477 669 25.4999L663.999 30.5L659 25.5001C658.448 24.9478 657.552 24.9478 657 25.5001C656.448 26.0523 656.448 26.9477 657 27.4999L661.999 32.5L657 37.5001C656.448 38.0523 656.448 38.9477 657 39.4999C657.552 40.0522 658.448 40.0522 659 39.4999L663.999 34.5L669 39.5001C669.552 40.0523 670.448 40.0523 671 39.5C671.552 38.9477 671.552 38.0523 671 37.5L666.001 32.5L671 27.5C671.552 26.9477 671.552 26.0523 671 25.5Z" fill="#6C757D"/>
<path d="M0.5 4C0.5 2.067 2.067 0.5 4 0.5H696C697.933 0.5 699.5 2.06701 699.5 4V64.5H0.5V4Z" stroke="#DEE2E6"/>
</svg>
