<svg width="730" height="166" viewBox="0 0 730 166" fill="none" xmlns="http://www.w3.org/2000/svg">
<g filter="url(#filter0_d_2391_2899)">
<rect x="15" y="11" width="700" height="136" rx="4" fill="white"/>
<path d="M15.5 15C15.5 13.067 17.067 11.5 19 11.5H711C712.933 11.5 714.5 13.067 714.5 15V75.5H15.5V15Z" fill="black"/>
<path d="M47 57.5C39.268 57.5 33 51.232 33 43.5C33 35.768 39.268 29.5 47 29.5C54.732 29.5 61 35.768 61 43.5C61 51.232 54.732 57.5 47 57.5ZM47 59.5C55.8366 59.5 63 52.3366 63 43.5C63 34.6634 55.8366 27.5 47 27.5C38.1634 27.5 31 34.6634 31 43.5C31 52.3366 38.1634 59.5 47 59.5Z" fill="#DAFF01"/>
<path d="M52.9393 37.4393C52.9252 37.4535 52.9119 37.4685 52.8995 37.4842L45.9548 46.3335L41.7678 42.1464C41.182 41.5607 40.2322 41.5607 39.6464 42.1464C39.0606 42.7322 39.0606 43.682 39.6464 44.2678L44.9393 49.5607C45.5251 50.1464 46.4749 50.1464 47.0606 49.5607C47.0737 49.5476 47.086 49.5339 47.0975 49.5195L55.0819 39.5389C55.6463 38.9516 55.6392 38.0179 55.0606 37.4393C54.4749 36.8536 53.5251 36.8536 52.9393 37.4393Z" fill="#DAFF01"/>
<path d="M84.598 50.5V35.9545H93.7173V37.8438H86.7926V42.2756H93.2415V44.1577H86.7926V48.6108H93.8026V50.5H84.598ZM102.906 43.4332V45.2727H96.457V43.4332H102.906ZM105.736 50.5V39.5909H107.775V41.3665H107.909C108.137 40.7652 108.508 40.2964 109.025 39.9602C109.541 39.6193 110.158 39.4489 110.878 39.4489C111.607 39.4489 112.218 39.6193 112.711 39.9602C113.208 40.3011 113.575 40.7699 113.811 41.3665H113.925C114.185 40.7841 114.6 40.3201 115.168 39.9744C115.736 39.6241 116.413 39.4489 117.199 39.4489C118.189 39.4489 118.996 39.759 119.621 40.3793C120.251 40.9995 120.566 41.9347 120.566 43.1847V50.5H118.442V43.3835C118.442 42.6449 118.241 42.1098 117.838 41.7784C117.436 41.447 116.955 41.2812 116.397 41.2812C115.705 41.2812 115.168 41.4943 114.784 41.9205C114.401 42.3419 114.209 42.884 114.209 43.5469V50.5H112.093V43.2486C112.093 42.6567 111.908 42.1809 111.539 41.821C111.169 41.4612 110.689 41.2812 110.097 41.2812C109.694 41.2812 109.323 41.3878 108.982 41.6009C108.646 41.8092 108.373 42.1004 108.165 42.4744C107.962 42.8485 107.86 43.2817 107.86 43.7741V50.5H105.736ZM126.587 50.7415C125.895 50.7415 125.27 50.6136 124.712 50.358C124.153 50.0975 123.71 49.7211 123.384 49.2287C123.062 48.7363 122.901 48.1326 122.901 47.4176C122.901 46.8021 123.019 46.2955 123.256 45.8977C123.492 45.5 123.812 45.1851 124.214 44.9531C124.617 44.7211 125.067 44.5459 125.564 44.4276C126.061 44.3092 126.568 44.2192 127.084 44.1577C127.737 44.0819 128.268 44.0204 128.675 43.973C129.082 43.9209 129.378 43.8381 129.562 43.7244C129.747 43.6108 129.839 43.4261 129.839 43.1705V43.1207C129.839 42.5005 129.664 42.0199 129.314 41.679C128.968 41.3381 128.452 41.1676 127.766 41.1676C127.051 41.1676 126.487 41.3262 126.075 41.6435C125.668 41.956 125.386 42.304 125.23 42.6875L123.234 42.233C123.471 41.5701 123.817 41.035 124.271 40.6278C124.731 40.2159 125.259 39.9176 125.855 39.733C126.452 39.5436 127.079 39.4489 127.737 39.4489C128.173 39.4489 128.634 39.5009 129.122 39.6051C129.615 39.7045 130.074 39.8892 130.5 40.1591C130.931 40.429 131.284 40.8149 131.558 41.3168C131.833 41.8139 131.97 42.4602 131.97 43.2557V50.5H129.896V49.0085H129.811C129.674 49.2831 129.468 49.553 129.193 49.8182C128.919 50.0833 128.566 50.3035 128.135 50.4787C127.704 50.6539 127.188 50.7415 126.587 50.7415ZM127.048 49.0369C127.635 49.0369 128.137 48.9209 128.554 48.6889C128.975 48.4569 129.295 48.1539 129.513 47.7798C129.735 47.401 129.847 46.9962 129.847 46.5653V45.1591C129.771 45.2348 129.624 45.3059 129.406 45.3722C129.193 45.4337 128.949 45.4882 128.675 45.5355C128.4 45.5781 128.133 45.6184 127.872 45.6562C127.612 45.6894 127.394 45.7178 127.219 45.7415C126.807 45.7936 126.43 45.8812 126.089 46.0043C125.753 46.1274 125.483 46.3049 125.28 46.5369C125.081 46.7642 124.982 47.0672 124.982 47.446C124.982 47.9716 125.176 48.3693 125.564 48.6392C125.952 48.9044 126.447 49.0369 127.048 49.0369ZM134.799 50.5V39.5909H136.922V50.5H134.799ZM135.871 37.9077C135.502 37.9077 135.185 37.7846 134.919 37.5384C134.659 37.2874 134.529 36.9891 134.529 36.6435C134.529 36.2931 134.659 35.9948 134.919 35.7486C135.185 35.4976 135.502 35.3722 135.871 35.3722C136.24 35.3722 136.555 35.4976 136.816 35.7486C137.081 35.9948 137.213 36.2931 137.213 36.6435C137.213 36.9891 137.081 37.2874 136.816 37.5384C136.555 37.7846 136.24 37.9077 135.871 37.9077ZM141.903 35.9545V50.5H139.779V35.9545H141.903ZM154.648 50.7202C153.592 50.7202 152.683 50.4811 151.92 50.0028C151.163 49.5199 150.58 48.8546 150.173 48.0071C149.766 47.1596 149.562 46.1889 149.562 45.0952C149.562 43.9872 149.771 43.0095 150.188 42.1619C150.604 41.3097 151.191 40.6444 151.949 40.1662C152.706 39.688 153.599 39.4489 154.626 39.4489C155.455 39.4489 156.194 39.6027 156.842 39.9105C157.491 40.2135 158.014 40.6397 158.412 41.1889C158.814 41.7382 159.054 42.3797 159.129 43.1136H157.062C156.949 42.6023 156.688 42.1619 156.281 41.7926C155.879 41.4233 155.339 41.2386 154.662 41.2386C154.07 41.2386 153.552 41.3949 153.107 41.7074C152.666 42.0152 152.323 42.4555 152.077 43.0284C151.83 43.5966 151.707 44.2689 151.707 45.0455C151.707 45.8409 151.828 46.5275 152.07 47.1051C152.311 47.6828 152.652 48.1302 153.092 48.4474C153.537 48.7647 154.061 48.9233 154.662 48.9233C155.064 48.9233 155.429 48.8499 155.756 48.7031C156.087 48.5516 156.364 48.3362 156.587 48.0568C156.814 47.7775 156.973 47.4413 157.062 47.0483H159.129C159.054 47.7538 158.824 48.3835 158.44 48.9375C158.057 49.4915 157.543 49.9271 156.899 50.2443C156.26 50.5616 155.509 50.7202 154.648 50.7202ZM164.575 50.7415C163.884 50.7415 163.259 50.6136 162.7 50.358C162.141 50.0975 161.699 49.7211 161.372 49.2287C161.05 48.7363 160.889 48.1326 160.889 47.4176C160.889 46.8021 161.007 46.2955 161.244 45.8977C161.481 45.5 161.8 45.1851 162.203 44.9531C162.605 44.7211 163.055 44.5459 163.552 44.4276C164.049 44.3092 164.556 44.2192 165.072 44.1577C165.725 44.0819 166.256 44.0204 166.663 43.973C167.07 43.9209 167.366 43.8381 167.551 43.7244C167.735 43.6108 167.828 43.4261 167.828 43.1705V43.1207C167.828 42.5005 167.653 42.0199 167.302 41.679C166.957 41.3381 166.44 41.1676 165.754 41.1676C165.039 41.1676 164.475 41.3262 164.064 41.6435C163.656 41.956 163.375 42.304 163.218 42.6875L161.223 42.233C161.459 41.5701 161.805 41.035 162.26 40.6278C162.719 40.2159 163.247 39.9176 163.843 39.733C164.44 39.5436 165.067 39.4489 165.725 39.4489C166.161 39.4489 166.623 39.5009 167.11 39.6051C167.603 39.7045 168.062 39.8892 168.488 40.1591C168.919 40.429 169.272 40.8149 169.547 41.3168C169.821 41.8139 169.958 42.4602 169.958 43.2557V50.5H167.885V49.0085H167.799C167.662 49.2831 167.456 49.553 167.181 49.8182C166.907 50.0833 166.554 50.3035 166.123 50.4787C165.692 50.6539 165.176 50.7415 164.575 50.7415ZM165.037 49.0369C165.624 49.0369 166.126 48.9209 166.542 48.6889C166.964 48.4569 167.283 48.1539 167.501 47.7798C167.724 47.401 167.835 46.9962 167.835 46.5653V45.1591C167.759 45.2348 167.612 45.3059 167.395 45.3722C167.181 45.4337 166.938 45.4882 166.663 45.5355C166.388 45.5781 166.121 45.6184 165.86 45.6562C165.6 45.6894 165.382 45.7178 165.207 45.7415C164.795 45.7936 164.419 45.8812 164.078 46.0043C163.742 46.1274 163.472 46.3049 163.268 46.5369C163.069 46.7642 162.97 47.0672 162.97 47.446C162.97 47.9716 163.164 48.3693 163.552 48.6392C163.94 48.9044 164.435 49.0369 165.037 49.0369ZM176.871 50.7131C175.99 50.7131 175.204 50.4882 174.513 50.0384C173.826 49.5838 173.286 48.9375 172.893 48.0994C172.505 47.2566 172.311 46.2457 172.311 45.0668C172.311 43.8878 172.508 42.8793 172.901 42.0412C173.298 41.2031 173.843 40.5616 174.534 40.1165C175.225 39.6714 176.009 39.4489 176.885 39.4489C177.562 39.4489 178.107 39.5625 178.518 39.7898C178.935 40.0123 179.257 40.2727 179.484 40.571C179.716 40.8693 179.896 41.1321 180.024 41.3594H180.152V35.9545H182.276V50.5H180.202V48.8026H180.024C179.896 49.0346 179.712 49.2997 179.47 49.598C179.233 49.8963 178.907 50.1567 178.49 50.3793C178.073 50.6018 177.534 50.7131 176.871 50.7131ZM177.339 48.902C177.95 48.902 178.466 48.741 178.888 48.419C179.314 48.0923 179.636 47.6402 179.854 47.0625C180.076 46.4848 180.188 45.8125 180.188 45.0455C180.188 44.2879 180.079 43.625 179.861 43.0568C179.643 42.4886 179.323 42.0459 178.902 41.7287C178.481 41.4115 177.96 41.2528 177.339 41.2528C176.7 41.2528 176.168 41.4186 175.741 41.75C175.315 42.0814 174.993 42.5336 174.776 43.1065C174.563 43.6795 174.456 44.3258 174.456 45.0455C174.456 45.7746 174.565 46.4304 174.783 47.0128C175 47.5952 175.322 48.0568 175.749 48.3977C176.179 48.7339 176.71 48.902 177.339 48.902ZM188.481 50.7415C187.79 50.7415 187.165 50.6136 186.606 50.358C186.047 50.0975 185.605 49.7211 185.278 49.2287C184.956 48.7363 184.795 48.1326 184.795 47.4176C184.795 46.8021 184.913 46.2955 185.15 45.8977C185.387 45.5 185.707 45.1851 186.109 44.9531C186.511 44.7211 186.961 44.5459 187.458 44.4276C187.956 44.3092 188.462 44.2192 188.978 44.1577C189.632 44.0819 190.162 44.0204 190.569 43.973C190.976 43.9209 191.272 43.8381 191.457 43.7244C191.642 43.6108 191.734 43.4261 191.734 43.1705V43.1207C191.734 42.5005 191.559 42.0199 191.208 41.679C190.863 41.3381 190.347 41.1676 189.66 41.1676C188.945 41.1676 188.382 41.3262 187.97 41.6435C187.563 41.956 187.281 42.304 187.125 42.6875L185.129 42.233C185.366 41.5701 185.711 41.035 186.166 40.6278C186.625 40.2159 187.153 39.9176 187.75 39.733C188.346 39.5436 188.974 39.4489 189.632 39.4489C190.067 39.4489 190.529 39.5009 191.017 39.6051C191.509 39.7045 191.968 39.8892 192.395 40.1591C192.825 40.429 193.178 40.8149 193.453 41.3168C193.727 41.8139 193.865 42.4602 193.865 43.2557V50.5H191.791V49.0085H191.706C191.568 49.2831 191.362 49.553 191.088 49.8182C190.813 50.0833 190.46 50.3035 190.029 50.4787C189.599 50.6539 189.083 50.7415 188.481 50.7415ZM188.943 49.0369C189.53 49.0369 190.032 48.9209 190.449 48.6889C190.87 48.4569 191.19 48.1539 191.407 47.7798C191.63 47.401 191.741 46.9962 191.741 46.5653V45.1591C191.665 45.2348 191.519 45.3059 191.301 45.3722C191.088 45.4337 190.844 45.4882 190.569 45.5355C190.295 45.5781 190.027 45.6184 189.767 45.6562C189.506 45.6894 189.288 45.7178 189.113 45.7415C188.701 45.7936 188.325 45.8812 187.984 46.0043C187.648 46.1274 187.378 46.3049 187.174 46.5369C186.975 46.7642 186.876 47.0672 186.876 47.446C186.876 47.9716 187.07 48.3693 187.458 48.6392C187.847 48.9044 188.342 49.0369 188.943 49.0369ZM204.868 42.2543L202.943 42.5952C202.863 42.349 202.735 42.1146 202.56 41.892C202.389 41.6695 202.157 41.4872 201.864 41.3452C201.57 41.2031 201.203 41.1321 200.763 41.1321C200.161 41.1321 199.66 41.267 199.257 41.5369C198.855 41.8021 198.653 42.1454 198.653 42.5668C198.653 42.9313 198.788 43.2249 199.058 43.4474C199.328 43.67 199.764 43.8523 200.365 43.9943L202.098 44.392C203.102 44.6241 203.85 44.9815 204.342 45.4645C204.835 45.9474 205.081 46.5748 205.081 47.3466C205.081 48 204.892 48.5824 204.513 49.0938C204.139 49.6004 203.616 49.9981 202.943 50.2869C202.276 50.5758 201.501 50.7202 200.621 50.7202C199.399 50.7202 198.402 50.4598 197.631 49.9389C196.859 49.4134 196.385 48.6676 196.21 47.7017L198.263 47.3892C198.391 47.9242 198.653 48.3291 199.051 48.6037C199.449 48.8736 199.967 49.0085 200.607 49.0085C201.303 49.0085 201.859 48.8641 202.276 48.5753C202.692 48.2817 202.901 47.9242 202.901 47.5028C202.901 47.1619 202.773 46.8755 202.517 46.6435C202.266 46.4115 201.88 46.2363 201.359 46.1179L199.513 45.7131C198.495 45.4811 197.742 45.1117 197.254 44.6051C196.771 44.0985 196.53 43.4569 196.53 42.6804C196.53 42.0365 196.71 41.473 197.07 40.9901C197.429 40.5071 197.927 40.1307 198.561 39.8608C199.196 39.5862 199.922 39.4489 200.741 39.4489C201.92 39.4489 202.848 39.7045 203.526 40.2159C204.203 40.7225 204.65 41.402 204.868 42.2543ZM212.508 39.5909V41.2955H206.549V39.5909H212.508ZM208.147 36.9773H210.271V47.2969C210.271 47.7088 210.333 48.0189 210.456 48.2273C210.579 48.4309 210.737 48.5705 210.931 48.6463C211.13 48.7173 211.346 48.7528 211.578 48.7528C211.748 48.7528 211.897 48.741 212.025 48.7173C212.153 48.6937 212.252 48.6747 212.324 48.6605L212.707 50.4148C212.584 50.4621 212.409 50.5095 212.181 50.5568C211.954 50.6089 211.67 50.6373 211.329 50.642C210.77 50.6515 210.25 50.5521 209.767 50.3438C209.284 50.1354 208.893 49.8134 208.595 49.3778C208.297 48.9422 208.147 48.3954 208.147 47.7372V36.9773ZM214.857 50.5V39.5909H216.91V41.3239H217.023C217.222 40.7367 217.573 40.2751 218.075 39.9389C218.581 39.598 219.154 39.4276 219.793 39.4276C219.926 39.4276 220.082 39.4323 220.262 39.4418C220.447 39.4512 220.591 39.4631 220.695 39.4773V41.5085C220.61 41.4848 220.459 41.4588 220.241 41.4304C220.023 41.3973 219.805 41.3807 219.587 41.3807C219.085 41.3807 218.638 41.4872 218.245 41.7003C217.857 41.9086 217.549 42.1998 217.322 42.5739C217.094 42.9432 216.981 43.3646 216.981 43.8381V50.5H214.857ZM225.61 50.7415C224.919 50.7415 224.294 50.6136 223.735 50.358C223.176 50.0975 222.734 49.7211 222.407 49.2287C222.085 48.7363 221.924 48.1326 221.924 47.4176C221.924 46.8021 222.042 46.2955 222.279 45.8977C222.516 45.5 222.835 45.1851 223.238 44.9531C223.64 44.7211 224.09 44.5459 224.587 44.4276C225.085 44.3092 225.591 44.2192 226.107 44.1577C226.761 44.0819 227.291 44.0204 227.698 43.973C228.105 43.9209 228.401 43.8381 228.586 43.7244C228.771 43.6108 228.863 43.4261 228.863 43.1705V43.1207C228.863 42.5005 228.688 42.0199 228.337 41.679C227.992 41.3381 227.476 41.1676 226.789 41.1676C226.074 41.1676 225.511 41.3262 225.099 41.6435C224.692 41.956 224.41 42.304 224.254 42.6875L222.258 42.233C222.495 41.5701 222.84 41.035 223.295 40.6278C223.754 40.2159 224.282 39.9176 224.879 39.733C225.475 39.5436 226.103 39.4489 226.761 39.4489C227.196 39.4489 227.658 39.5009 228.146 39.6051C228.638 39.7045 229.097 39.8892 229.523 40.1591C229.954 40.429 230.307 40.8149 230.582 41.3168C230.856 41.8139 230.994 42.4602 230.994 43.2557V50.5H228.92V49.0085H228.835C228.697 49.2831 228.491 49.553 228.217 49.8182C227.942 50.0833 227.589 50.3035 227.158 50.4787C226.728 50.6539 226.211 50.7415 225.61 50.7415ZM226.072 49.0369C226.659 49.0369 227.161 48.9209 227.577 48.6889C227.999 48.4569 228.318 48.1539 228.536 47.7798C228.759 47.401 228.87 46.9962 228.87 46.5653V45.1591C228.794 45.2348 228.647 45.3059 228.43 45.3722C228.217 45.4337 227.973 45.4882 227.698 45.5355C227.424 45.5781 227.156 45.6184 226.896 45.6562C226.635 45.6894 226.417 45.7178 226.242 45.7415C225.83 45.7936 225.454 45.8812 225.113 46.0043C224.777 46.1274 224.507 46.3049 224.303 46.5369C224.104 46.7642 224.005 47.0672 224.005 47.446C224.005 47.9716 224.199 48.3693 224.587 48.6392C224.976 48.9044 225.47 49.0369 226.072 49.0369ZM237.906 50.7131C237.025 50.7131 236.239 50.4882 235.548 50.0384C234.861 49.5838 234.322 48.9375 233.929 48.0994C233.54 47.2566 233.346 46.2457 233.346 45.0668C233.346 43.8878 233.543 42.8793 233.936 42.0412C234.333 41.2031 234.878 40.5616 235.569 40.1165C236.261 39.6714 237.044 39.4489 237.92 39.4489C238.597 39.4489 239.142 39.5625 239.554 39.7898C239.97 40.0123 240.292 40.2727 240.52 40.571C240.752 40.8693 240.931 41.1321 241.059 41.3594H241.187V35.9545H243.311V50.5H241.237V48.8026H241.059C240.931 49.0346 240.747 49.2997 240.505 49.598C240.269 49.8963 239.942 50.1567 239.525 50.3793C239.109 50.6018 238.569 50.7131 237.906 50.7131ZM238.375 48.902C238.985 48.902 239.502 48.741 239.923 48.419C240.349 48.0923 240.671 47.6402 240.889 47.0625C241.111 46.4848 241.223 45.8125 241.223 45.0455C241.223 44.2879 241.114 43.625 240.896 43.0568C240.678 42.4886 240.359 42.0459 239.937 41.7287C239.516 41.4115 238.995 41.2528 238.375 41.2528C237.735 41.2528 237.203 41.4186 236.777 41.75C236.35 42.0814 236.029 42.5336 235.811 43.1065C235.598 43.6795 235.491 44.3258 235.491 45.0455C235.491 45.7746 235.6 46.4304 235.818 47.0128C236.036 47.5952 236.358 48.0568 236.784 48.3977C237.215 48.7339 237.745 48.902 238.375 48.902ZM250.937 50.7202C249.914 50.7202 249.022 50.4858 248.259 50.017C247.497 49.5483 246.905 48.8925 246.484 48.0497C246.062 47.2069 245.852 46.2221 245.852 45.0952C245.852 43.9635 246.062 42.974 246.484 42.1264C246.905 41.2789 247.497 40.6207 248.259 40.152C249.022 39.6832 249.914 39.4489 250.937 39.4489C251.96 39.4489 252.852 39.6832 253.614 40.152C254.377 40.6207 254.969 41.2789 255.39 42.1264C255.811 42.974 256.022 43.9635 256.022 45.0952C256.022 46.2221 255.811 47.2069 255.39 48.0497C254.969 48.8925 254.377 49.5483 253.614 50.017C252.852 50.4858 251.96 50.7202 250.937 50.7202ZM250.944 48.9375C251.607 48.9375 252.156 48.7623 252.592 48.4119C253.027 48.0616 253.349 47.5952 253.558 47.0128C253.771 46.4304 253.877 45.7888 253.877 45.0881C253.877 44.392 253.771 43.7528 253.558 43.1705C253.349 42.5833 253.027 42.1122 252.592 41.7571C252.156 41.402 251.607 41.2244 250.944 41.2244C250.276 41.2244 249.722 41.402 249.282 41.7571C248.846 42.1122 248.522 42.5833 248.309 43.1705C248.101 43.7528 247.996 44.392 247.996 45.0881C247.996 45.7888 248.101 46.4304 248.309 47.0128C248.522 47.5952 248.846 48.0616 249.282 48.4119C249.722 48.7623 250.276 48.9375 250.944 48.9375ZM268.281 50.7202C267.225 50.7202 266.316 50.4811 265.553 50.0028C264.796 49.5199 264.213 48.8546 263.806 48.0071C263.399 47.1596 263.195 46.1889 263.195 45.0952C263.195 43.9872 263.404 43.0095 263.82 42.1619C264.237 41.3097 264.824 40.6444 265.582 40.1662C266.339 39.688 267.232 39.4489 268.259 39.4489C269.088 39.4489 269.826 39.6027 270.475 39.9105C271.124 40.2135 271.647 40.6397 272.045 41.1889C272.447 41.7382 272.686 42.3797 272.762 43.1136H270.695C270.582 42.6023 270.321 42.1619 269.914 41.7926C269.512 41.4233 268.972 41.2386 268.295 41.2386C267.703 41.2386 267.184 41.3949 266.739 41.7074C266.299 42.0152 265.956 42.4555 265.71 43.0284C265.463 43.5966 265.34 44.2689 265.34 45.0455C265.34 45.8409 265.461 46.5275 265.702 47.1051C265.944 47.6828 266.285 48.1302 266.725 48.4474C267.17 48.7647 267.693 48.9233 268.295 48.9233C268.697 48.9233 269.062 48.8499 269.388 48.7031C269.72 48.5516 269.997 48.3362 270.219 48.0568C270.447 47.7775 270.605 47.4413 270.695 47.0483H272.762C272.686 47.7538 272.457 48.3835 272.073 48.9375C271.69 49.4915 271.176 49.9271 270.532 50.2443C269.893 50.5616 269.142 50.7202 268.281 50.7202ZM279.628 50.7202C278.605 50.7202 277.713 50.4858 276.951 50.017C276.188 49.5483 275.596 48.8925 275.175 48.0497C274.754 47.2069 274.543 46.2221 274.543 45.0952C274.543 43.9635 274.754 42.974 275.175 42.1264C275.596 41.2789 276.188 40.6207 276.951 40.152C277.713 39.6832 278.605 39.4489 279.628 39.4489C280.651 39.4489 281.543 39.6832 282.306 40.152C283.068 40.6207 283.66 41.2789 284.081 42.1264C284.503 42.974 284.713 43.9635 284.713 45.0952C284.713 46.2221 284.503 47.2069 284.081 48.0497C283.66 48.8925 283.068 49.5483 282.306 50.017C281.543 50.4858 280.651 50.7202 279.628 50.7202ZM279.635 48.9375C280.298 48.9375 280.847 48.7623 281.283 48.4119C281.719 48.0616 282.041 47.5952 282.249 47.0128C282.462 46.4304 282.569 45.7888 282.569 45.0881C282.569 44.392 282.462 43.7528 282.249 43.1705C282.041 42.5833 281.719 42.1122 281.283 41.7571C280.847 41.402 280.298 41.2244 279.635 41.2244C278.968 41.2244 278.414 41.402 277.973 41.7571C277.538 42.1122 277.213 42.5833 277 43.1705C276.792 43.7528 276.688 44.392 276.688 45.0881C276.688 45.7888 276.792 46.4304 277 47.0128C277.213 47.5952 277.538 48.0616 277.973 48.4119C278.414 48.7623 278.968 48.9375 279.635 48.9375ZM287.084 50.5V39.5909H289.122V41.3665H289.257C289.484 40.7652 289.856 40.2964 290.372 39.9602C290.888 39.6193 291.506 39.4489 292.226 39.4489C292.955 39.4489 293.566 39.6193 294.058 39.9602C294.555 40.3011 294.922 40.7699 295.159 41.3665H295.273C295.533 40.7841 295.947 40.3201 296.516 39.9744C297.084 39.6241 297.761 39.4489 298.547 39.4489C299.536 39.4489 300.344 39.759 300.969 40.3793C301.598 40.9995 301.913 41.9347 301.913 43.1847V50.5H299.79V43.3835C299.79 42.6449 299.589 42.1098 299.186 41.7784C298.784 41.447 298.303 41.2812 297.744 41.2812C297.053 41.2812 296.516 41.4943 296.132 41.9205C295.749 42.3419 295.557 42.884 295.557 43.5469V50.5H293.44V43.2486C293.44 42.6567 293.256 42.1809 292.886 41.821C292.517 41.4612 292.036 41.2812 291.445 41.2812C291.042 41.2812 290.67 41.3878 290.33 41.6009C289.993 41.8092 289.721 42.1004 289.513 42.4744C289.309 42.8485 289.207 43.2817 289.207 43.7741V50.5H287.084ZM318.227 42.2543L316.303 42.5952C316.222 42.349 316.094 42.1146 315.919 41.892C315.749 41.6695 315.517 41.4872 315.223 41.3452C314.929 41.2031 314.563 41.1321 314.122 41.1321C313.521 41.1321 313.019 41.267 312.616 41.5369C312.214 41.8021 312.013 42.1454 312.013 42.5668C312.013 42.9313 312.148 43.2249 312.418 43.4474C312.688 43.67 313.123 43.8523 313.724 43.9943L315.457 44.392C316.461 44.6241 317.209 44.9815 317.702 45.4645C318.194 45.9474 318.44 46.5748 318.44 47.3466C318.44 48 318.251 48.5824 317.872 49.0938C317.498 49.6004 316.975 49.9981 316.303 50.2869C315.635 50.5758 314.861 50.7202 313.98 50.7202C312.759 50.7202 311.762 50.4598 310.99 49.9389C310.218 49.4134 309.745 48.6676 309.57 47.7017L311.622 47.3892C311.75 47.9242 312.013 48.3291 312.411 48.6037C312.808 48.8736 313.327 49.0085 313.966 49.0085C314.662 49.0085 315.218 48.8641 315.635 48.5753C316.052 48.2817 316.26 47.9242 316.26 47.5028C316.26 47.1619 316.132 46.8755 315.876 46.6435C315.625 46.4115 315.24 46.2363 314.719 46.1179L312.872 45.7131C311.854 45.4811 311.101 45.1117 310.614 44.6051C310.131 44.0985 309.889 43.4569 309.889 42.6804C309.889 42.0365 310.069 41.473 310.429 40.9901C310.789 40.5071 311.286 40.1307 311.92 39.8608C312.555 39.5862 313.282 39.4489 314.101 39.4489C315.28 39.4489 316.208 39.7045 316.885 40.2159C317.562 40.7225 318.009 41.402 318.227 42.2543ZM327.686 45.9759V39.5909H329.816V50.5H327.728V48.6108H327.615C327.364 49.1932 326.961 49.6785 326.407 50.0668C325.858 50.4503 325.174 50.642 324.355 50.642C323.654 50.642 323.034 50.4882 322.494 50.1804C321.959 49.8679 321.538 49.4062 321.23 48.7955C320.927 48.1847 320.775 47.4295 320.775 46.5298V39.5909H322.899V46.2741C322.899 47.0175 323.105 47.6094 323.517 48.0497C323.929 48.4901 324.464 48.7102 325.122 48.7102C325.52 48.7102 325.915 48.6108 326.308 48.4119C326.706 48.2131 327.035 47.9124 327.295 47.5099C327.56 47.1075 327.69 46.5961 327.686 45.9759ZM337.265 50.7202C336.209 50.7202 335.3 50.4811 334.538 50.0028C333.78 49.5199 333.198 48.8546 332.79 48.0071C332.383 47.1596 332.18 46.1889 332.18 45.0952C332.18 43.9872 332.388 43.0095 332.805 42.1619C333.221 41.3097 333.808 40.6444 334.566 40.1662C335.324 39.688 336.216 39.4489 337.244 39.4489C338.072 39.4489 338.811 39.6027 339.46 39.9105C340.108 40.2135 340.631 40.6397 341.029 41.1889C341.432 41.7382 341.671 42.3797 341.746 43.1136H339.68C339.566 42.6023 339.306 42.1619 338.898 41.7926C338.496 41.4233 337.956 41.2386 337.279 41.2386C336.687 41.2386 336.169 41.3949 335.724 41.7074C335.283 42.0152 334.94 42.4555 334.694 43.0284C334.448 43.5966 334.325 44.2689 334.325 45.0455C334.325 45.8409 334.445 46.5275 334.687 47.1051C334.928 47.6828 335.269 48.1302 335.71 48.4474C336.155 48.7647 336.678 48.9233 337.279 48.9233C337.682 48.9233 338.046 48.8499 338.373 48.7031C338.704 48.5516 338.981 48.3362 339.204 48.0568C339.431 47.7775 339.59 47.4413 339.68 47.0483H341.746C341.671 47.7538 341.441 48.3835 341.058 48.9375C340.674 49.4915 340.16 49.9271 339.516 50.2443C338.877 50.5616 338.127 50.7202 337.265 50.7202ZM348.719 50.7202C347.644 50.7202 346.719 50.4905 345.942 50.0312C345.17 49.5672 344.574 48.9162 344.152 48.0781C343.736 47.2353 343.527 46.2481 343.527 45.1165C343.527 43.9991 343.736 43.0142 344.152 42.1619C344.574 41.3097 345.161 40.6444 345.914 40.1662C346.671 39.688 347.557 39.4489 348.57 39.4489C349.185 39.4489 349.782 39.5507 350.36 39.7543C350.937 39.9579 351.456 40.2775 351.915 40.7131C352.374 41.1487 352.737 41.7145 353.002 42.4105C353.267 43.1018 353.4 43.9422 353.4 44.9318V45.6847H344.728V44.0938H351.319C351.319 43.535 351.205 43.0402 350.978 42.6094C350.75 42.1738 350.431 41.8305 350.019 41.5795C349.612 41.3286 349.133 41.2031 348.584 41.2031C347.988 41.2031 347.467 41.3499 347.022 41.6435C346.581 41.9323 346.24 42.3111 345.999 42.7798C345.762 43.2438 345.644 43.7481 345.644 44.2926V45.5355C345.644 46.2647 345.772 46.8849 346.027 47.3963C346.288 47.9077 346.65 48.2983 347.114 48.5682C347.578 48.8333 348.12 48.9659 348.74 48.9659C349.143 48.9659 349.51 48.9091 349.841 48.7955C350.173 48.6771 350.459 48.5019 350.701 48.2699C350.942 48.0379 351.127 47.7514 351.255 47.4105L353.265 47.7727C353.104 48.3646 352.815 48.883 352.398 49.3281C351.986 49.7685 351.468 50.1117 350.843 50.358C350.222 50.5994 349.515 50.7202 348.719 50.7202ZM363.93 42.2543L362.006 42.5952C361.925 42.349 361.797 42.1146 361.622 41.892C361.452 41.6695 361.22 41.4872 360.926 41.3452C360.633 41.2031 360.266 41.1321 359.825 41.1321C359.224 41.1321 358.722 41.267 358.32 41.5369C357.917 41.8021 357.716 42.1454 357.716 42.5668C357.716 42.9313 357.851 43.2249 358.121 43.4474C358.391 43.67 358.826 43.8523 359.428 43.9943L361.161 44.392C362.164 44.6241 362.912 44.9815 363.405 45.4645C363.897 45.9474 364.143 46.5748 364.143 47.3466C364.143 48 363.954 48.5824 363.575 49.0938C363.201 49.6004 362.678 49.9981 362.006 50.2869C361.338 50.5758 360.564 50.7202 359.683 50.7202C358.462 50.7202 357.465 50.4598 356.693 49.9389C355.921 49.4134 355.448 48.6676 355.273 47.7017L357.325 47.3892C357.453 47.9242 357.716 48.3291 358.114 48.6037C358.511 48.8736 359.03 49.0085 359.669 49.0085C360.365 49.0085 360.921 48.8641 361.338 48.5753C361.755 48.2817 361.963 47.9242 361.963 47.5028C361.963 47.1619 361.835 46.8755 361.58 46.6435C361.329 46.4115 360.943 46.2363 360.422 46.1179L358.575 45.7131C357.557 45.4811 356.804 45.1117 356.317 44.6051C355.834 44.0985 355.592 43.4569 355.592 42.6804C355.592 42.0365 355.772 41.473 356.132 40.9901C356.492 40.5071 356.989 40.1307 357.624 39.8608C358.258 39.5862 358.985 39.4489 359.804 39.4489C360.983 39.4489 361.911 39.7045 362.588 40.2159C363.265 40.7225 363.713 41.402 363.93 42.2543ZM374.653 42.2543L372.728 42.5952C372.648 42.349 372.52 42.1146 372.345 41.892C372.174 41.6695 371.942 41.4872 371.649 41.3452C371.355 41.2031 370.988 41.1321 370.548 41.1321C369.947 41.1321 369.445 41.267 369.042 41.5369C368.64 41.8021 368.439 42.1454 368.439 42.5668C368.439 42.9313 368.574 43.2249 368.843 43.4474C369.113 43.67 369.549 43.8523 370.15 43.9943L371.883 44.392C372.887 44.6241 373.635 44.9815 374.127 45.4645C374.62 45.9474 374.866 46.5748 374.866 47.3466C374.866 48 374.677 48.5824 374.298 49.0938C373.924 49.6004 373.401 49.9981 372.728 50.2869C372.061 50.5758 371.287 50.7202 370.406 50.7202C369.184 50.7202 368.188 50.4598 367.416 49.9389C366.644 49.4134 366.171 48.6676 365.995 47.7017L368.048 47.3892C368.176 47.9242 368.439 48.3291 368.836 48.6037C369.234 48.8736 369.752 49.0085 370.392 49.0085C371.088 49.0085 371.644 48.8641 372.061 48.5753C372.477 48.2817 372.686 47.9242 372.686 47.5028C372.686 47.1619 372.558 46.8755 372.302 46.6435C372.051 46.4115 371.665 46.2363 371.145 46.1179L369.298 45.7131C368.28 45.4811 367.527 45.1117 367.039 44.6051C366.556 44.0985 366.315 43.4569 366.315 42.6804C366.315 42.0365 366.495 41.473 366.855 40.9901C367.215 40.5071 367.712 40.1307 368.346 39.8608C368.981 39.5862 369.708 39.4489 370.527 39.4489C371.706 39.4489 372.634 39.7045 373.311 40.2159C373.988 40.7225 374.435 41.402 374.653 42.2543ZM381.796 50.7202C380.773 50.7202 379.881 50.4858 379.119 50.017C378.356 49.5483 377.764 48.8925 377.343 48.0497C376.922 47.2069 376.711 46.2221 376.711 45.0952C376.711 43.9635 376.922 42.974 377.343 42.1264C377.764 41.2789 378.356 40.6207 379.119 40.152C379.881 39.6832 380.773 39.4489 381.796 39.4489C382.819 39.4489 383.711 39.6832 384.474 40.152C385.236 40.6207 385.828 41.2789 386.249 42.1264C386.671 42.974 386.881 43.9635 386.881 45.0952C386.881 46.2221 386.671 47.2069 386.249 48.0497C385.828 48.8925 385.236 49.5483 384.474 50.017C383.711 50.4858 382.819 50.7202 381.796 50.7202ZM381.803 48.9375C382.466 48.9375 383.015 48.7623 383.451 48.4119C383.887 48.0616 384.209 47.5952 384.417 47.0128C384.63 46.4304 384.737 45.7888 384.737 45.0881C384.737 44.392 384.63 43.7528 384.417 43.1705C384.209 42.5833 383.887 42.1122 383.451 41.7571C383.015 41.402 382.466 41.2244 381.803 41.2244C381.136 41.2244 380.582 41.402 380.141 41.7571C379.706 42.1122 379.381 42.5833 379.168 43.1705C378.96 43.7528 378.856 44.392 378.856 45.0881C378.856 45.7888 378.96 46.4304 379.168 47.0128C379.381 47.5952 379.706 48.0616 380.141 48.4119C380.582 48.7623 381.136 48.9375 381.803 48.9375ZM391.929 35.9545L391.745 46.3168H389.777L389.593 35.9545H391.929ZM390.765 50.6349C390.372 50.6349 390.035 50.4976 389.756 50.223C389.477 49.9437 389.339 49.6075 389.344 49.2145C389.339 48.8262 389.477 48.4948 389.756 48.2202C390.035 47.9408 390.372 47.8011 390.765 47.8011C391.148 47.8011 391.48 47.9408 391.759 48.2202C392.038 48.4948 392.18 48.8262 392.185 49.2145C392.18 49.4749 392.112 49.714 391.979 49.9318C391.851 50.1449 391.681 50.3153 391.468 50.4432C391.255 50.571 391.02 50.6349 390.765 50.6349Z" fill="white"/>
<path fill-rule="evenodd" clip-rule="evenodd" d="M686 36.5C685.448 35.9477 684.552 35.9477 684 36.4999L678.999 41.5L674 36.5001C673.448 35.9478 672.552 35.9478 672 36.5001C671.448 37.0523 671.448 37.9477 672 38.4999L676.999 43.5L672 48.5001C671.448 49.0523 671.448 49.9477 672 50.4999C672.552 51.0522 673.448 51.0522 674 50.4999L678.999 45.5L684 50.5001C684.552 51.0523 685.448 51.0523 686 50.5C686.552 49.9477 686.552 49.0523 686 48.5L681.001 43.5L686 38.5C686.552 37.9477 686.552 37.0523 686 36.5Z" fill="#6C757D"/>
<path d="M15.5 15C15.5 13.067 17.067 11.5 19 11.5H711C712.933 11.5 714.5 13.067 714.5 15V75.5H15.5V15Z" stroke="#DEE2E6"/>
<path d="M15 76H715V143C715 145.209 713.209 147 711 147H19C16.7909 147 15 145.209 15 143V76Z" fill="white"/>
<path d="M32.4091 109V97.3636H39.4318V98.6136H33.8182V102.545H39.0682V103.795H33.8182V107.75H39.5227V109H32.4091ZM41.7898 109V100.273H43.0852V101.636H43.1989C43.3807 101.17 43.6742 100.809 44.0795 100.551C44.4848 100.29 44.9716 100.159 45.5398 100.159C46.1155 100.159 46.5947 100.29 46.9773 100.551C47.3636 100.809 47.6648 101.17 47.8807 101.636H47.9716C48.1951 101.186 48.5303 100.828 48.9773 100.562C49.4242 100.294 49.9602 100.159 50.5852 100.159C51.3655 100.159 52.0038 100.403 52.5 100.892C52.9962 101.377 53.2443 102.133 53.2443 103.159V109H51.9034V103.159C51.9034 102.515 51.7273 102.055 51.375 101.778C51.0227 101.502 50.608 101.364 50.1307 101.364C49.517 101.364 49.0417 101.549 48.7045 101.92C48.3674 102.288 48.1989 102.754 48.1989 103.318V109H46.8352V103.023C46.8352 102.527 46.6742 102.127 46.3523 101.824C46.0303 101.517 45.6155 101.364 45.108 101.364C44.7595 101.364 44.4337 101.456 44.1307 101.642C43.8314 101.828 43.589 102.085 43.4034 102.415C43.2216 102.741 43.1307 103.117 43.1307 103.545V109H41.7898ZM60.3778 109V97.3636H61.7188V101.659H61.8324C61.9309 101.508 62.0672 101.314 62.2415 101.08C62.4195 100.841 62.6733 100.629 63.0028 100.443C63.3362 100.254 63.7869 100.159 64.3551 100.159C65.09 100.159 65.7377 100.343 66.2983 100.71C66.8589 101.078 67.2964 101.598 67.6108 102.273C67.9252 102.947 68.0824 103.742 68.0824 104.659C68.0824 105.583 67.9252 106.384 67.6108 107.062C67.2964 107.737 66.8608 108.259 66.304 108.631C65.7472 108.998 65.1051 109.182 64.3778 109.182C63.8172 109.182 63.3684 109.089 63.0312 108.903C62.6941 108.714 62.4347 108.5 62.2528 108.261C62.071 108.019 61.9309 107.818 61.8324 107.659H61.6733V109H60.3778ZM61.696 104.636C61.696 105.295 61.7926 105.877 61.9858 106.381C62.179 106.881 62.4612 107.273 62.8324 107.557C63.2036 107.837 63.6581 107.977 64.196 107.977C64.7566 107.977 65.2244 107.83 65.5994 107.534C65.9782 107.235 66.2623 106.833 66.4517 106.33C66.6449 105.822 66.7415 105.258 66.7415 104.636C66.7415 104.023 66.6468 103.47 66.4574 102.977C66.2718 102.481 65.9896 102.089 65.6108 101.801C65.2358 101.509 64.7642 101.364 64.196 101.364C63.6506 101.364 63.1922 101.502 62.821 101.778C62.4498 102.051 62.1695 102.434 61.9801 102.926C61.7907 103.415 61.696 103.985 61.696 104.636ZM70.1335 109V100.273H71.429V101.591H71.5199C71.679 101.159 71.9669 100.809 72.3835 100.54C72.8002 100.271 73.2699 100.136 73.7926 100.136C73.8911 100.136 74.0142 100.138 74.1619 100.142C74.3097 100.146 74.4214 100.152 74.4972 100.159V101.523C74.4517 101.511 74.3475 101.494 74.1847 101.472C74.0256 101.445 73.857 101.432 73.679 101.432C73.2547 101.432 72.8759 101.521 72.5426 101.699C72.2131 101.873 71.9517 102.116 71.7585 102.426C71.5691 102.733 71.4744 103.083 71.4744 103.477V109H70.1335ZM79.4801 109.182C78.6392 109.182 77.9138 108.996 77.304 108.625C76.6979 108.25 76.2301 107.727 75.9006 107.057C75.5748 106.383 75.4119 105.598 75.4119 104.705C75.4119 103.811 75.5748 103.023 75.9006 102.341C76.2301 101.655 76.6884 101.121 77.2756 100.739C77.8665 100.352 78.5559 100.159 79.3438 100.159C79.7983 100.159 80.2472 100.235 80.6903 100.386C81.1335 100.538 81.5369 100.784 81.9006 101.125C82.2642 101.462 82.554 101.909 82.7699 102.466C82.9858 103.023 83.0938 103.708 83.0938 104.523V105.091H76.3665V103.932H81.7301C81.7301 103.439 81.6316 103 81.4347 102.614C81.2415 102.227 80.965 101.922 80.6051 101.699C80.2491 101.475 79.8286 101.364 79.3438 101.364C78.8097 101.364 78.3475 101.496 77.9574 101.761C77.571 102.023 77.2737 102.364 77.0653 102.784C76.857 103.205 76.7528 103.655 76.7528 104.136V104.909C76.7528 105.568 76.8665 106.127 77.0938 106.585C77.3248 107.04 77.6449 107.386 78.054 107.625C78.4631 107.86 78.9384 107.977 79.4801 107.977C79.8324 107.977 80.1506 107.928 80.4347 107.83C80.7225 107.727 80.9706 107.576 81.179 107.375C81.3873 107.17 81.5483 106.917 81.6619 106.614L82.9574 106.977C82.821 107.417 82.5919 107.803 82.2699 108.136C81.9479 108.466 81.5502 108.723 81.0767 108.909C80.6032 109.091 80.071 109.182 79.4801 109.182ZM92.0043 100.273L88.777 109H87.4134L84.1861 100.273H85.6406L88.0497 107.227H88.1406L90.5497 100.273H92.0043ZM97.1207 109.182C96.2798 109.182 95.5545 108.996 94.9446 108.625C94.3385 108.25 93.8707 107.727 93.5412 107.057C93.2154 106.383 93.0526 105.598 93.0526 104.705C93.0526 103.811 93.2154 103.023 93.5412 102.341C93.8707 101.655 94.3291 101.121 94.9162 100.739C95.5071 100.352 96.1965 100.159 96.9844 100.159C97.4389 100.159 97.8878 100.235 98.331 100.386C98.7741 100.538 99.1776 100.784 99.5412 101.125C99.9048 101.462 100.195 101.909 100.411 102.466C100.626 103.023 100.734 103.708 100.734 104.523V105.091H94.0071V103.932H99.3707C99.3707 103.439 99.2723 103 99.0753 102.614C98.8821 102.227 98.6056 101.922 98.2457 101.699C97.8897 101.475 97.4692 101.364 96.9844 101.364C96.4503 101.364 95.9882 101.496 95.598 101.761C95.2116 102.023 94.9143 102.364 94.706 102.784C94.4976 103.205 94.3935 103.655 94.3935 104.136V104.909C94.3935 105.568 94.5071 106.127 94.7344 106.585C94.9654 107.04 95.2855 107.386 95.6946 107.625C96.1037 107.86 96.5791 107.977 97.1207 107.977C97.473 107.977 97.7912 107.928 98.0753 107.83C98.3632 107.727 98.6113 107.576 98.8196 107.375C99.0279 107.17 99.1889 106.917 99.3026 106.614L100.598 106.977C100.462 107.417 100.232 107.803 99.9105 108.136C99.5885 108.466 99.1908 108.723 98.7173 108.909C98.2438 109.091 97.7116 109.182 97.1207 109.182ZM114.411 100.273L111.183 109H109.82L106.592 100.273H108.047L110.456 107.227H110.547L112.956 100.273H114.411ZM119.413 109.182C118.625 109.182 117.934 108.994 117.339 108.619C116.749 108.244 116.286 107.72 115.953 107.045C115.624 106.371 115.459 105.583 115.459 104.682C115.459 103.773 115.624 102.979 115.953 102.301C116.286 101.623 116.749 101.097 117.339 100.722C117.934 100.347 118.625 100.159 119.413 100.159C120.201 100.159 120.891 100.347 121.482 100.722C122.076 101.097 122.538 101.623 122.868 102.301C123.201 102.979 123.368 103.773 123.368 104.682C123.368 105.583 123.201 106.371 122.868 107.045C122.538 107.72 122.076 108.244 121.482 108.619C120.891 108.994 120.201 109.182 119.413 109.182ZM119.413 107.977C120.012 107.977 120.504 107.824 120.891 107.517C121.277 107.21 121.563 106.807 121.749 106.307C121.934 105.807 122.027 105.265 122.027 104.682C122.027 104.098 121.934 103.555 121.749 103.051C121.563 102.547 121.277 102.14 120.891 101.83C120.504 101.519 120.012 101.364 119.413 101.364C118.815 101.364 118.322 101.519 117.936 101.83C117.55 102.14 117.264 102.547 117.078 103.051C116.893 103.555 116.8 104.098 116.8 104.682C116.8 105.265 116.893 105.807 117.078 106.307C117.264 106.807 117.55 107.21 117.936 107.517C118.322 107.824 118.815 107.977 119.413 107.977ZM128.96 109.182C128.142 109.182 127.438 108.989 126.847 108.602C126.256 108.216 125.801 107.684 125.483 107.006C125.165 106.328 125.006 105.553 125.006 104.682C125.006 103.795 125.169 103.013 125.494 102.335C125.824 101.653 126.282 101.121 126.869 100.739C127.46 100.352 128.15 100.159 128.938 100.159C129.551 100.159 130.104 100.273 130.597 100.5C131.089 100.727 131.492 101.045 131.807 101.455C132.121 101.864 132.316 102.341 132.392 102.886H131.051C130.949 102.489 130.722 102.136 130.369 101.83C130.021 101.519 129.551 101.364 128.96 101.364C128.438 101.364 127.979 101.5 127.585 101.773C127.195 102.042 126.89 102.422 126.67 102.915C126.455 103.403 126.347 103.977 126.347 104.636C126.347 105.311 126.453 105.898 126.665 106.398C126.881 106.898 127.184 107.286 127.574 107.562C127.968 107.839 128.43 107.977 128.96 107.977C129.309 107.977 129.625 107.917 129.909 107.795C130.193 107.674 130.434 107.5 130.631 107.273C130.828 107.045 130.968 106.773 131.051 106.455H132.392C132.316 106.97 132.129 107.434 131.83 107.847C131.534 108.256 131.142 108.581 130.653 108.824C130.169 109.062 129.604 109.182 128.96 109.182ZM138.011 109.182C137.17 109.182 136.445 108.996 135.835 108.625C135.229 108.25 134.761 107.727 134.432 107.057C134.106 106.383 133.943 105.598 133.943 104.705C133.943 103.811 134.106 103.023 134.432 102.341C134.761 101.655 135.22 101.121 135.807 100.739C136.398 100.352 137.087 100.159 137.875 100.159C138.33 100.159 138.778 100.235 139.222 100.386C139.665 100.538 140.068 100.784 140.432 101.125C140.795 101.462 141.085 101.909 141.301 102.466C141.517 103.023 141.625 103.708 141.625 104.523V105.091H134.898V103.932H140.261C140.261 103.439 140.163 103 139.966 102.614C139.773 102.227 139.496 101.922 139.136 101.699C138.78 101.475 138.36 101.364 137.875 101.364C137.341 101.364 136.879 101.496 136.489 101.761C136.102 102.023 135.805 102.364 135.597 102.784C135.388 103.205 135.284 103.655 135.284 104.136V104.909C135.284 105.568 135.398 106.127 135.625 106.585C135.856 107.04 136.176 107.386 136.585 107.625C136.994 107.86 137.47 107.977 138.011 107.977C138.364 107.977 138.682 107.928 138.966 107.83C139.254 107.727 139.502 107.576 139.71 107.375C139.919 107.17 140.08 106.917 140.193 106.614L141.489 106.977C141.352 107.417 141.123 107.803 140.801 108.136C140.479 108.466 140.081 108.723 139.608 108.909C139.134 109.091 138.602 109.182 138.011 109.182ZM138.989 99.2273L137.807 97.6364L136.625 99.2273H135.352V99.1364L137.193 96.7727H138.42L140.261 99.1364V99.2273H138.989ZM148.165 109V100.273H149.46V101.591H149.551C149.71 101.159 149.998 100.809 150.415 100.54C150.831 100.271 151.301 100.136 151.824 100.136C151.922 100.136 152.045 100.138 152.193 100.142C152.341 100.146 152.453 100.152 152.528 100.159V101.523C152.483 101.511 152.379 101.494 152.216 101.472C152.057 101.445 151.888 101.432 151.71 101.432C151.286 101.432 150.907 101.521 150.574 101.699C150.244 101.873 149.983 102.116 149.79 102.426C149.6 102.733 149.506 103.083 149.506 103.477V109H148.165ZM157.511 109.182C156.67 109.182 155.945 108.996 155.335 108.625C154.729 108.25 154.261 107.727 153.932 107.057C153.606 106.383 153.443 105.598 153.443 104.705C153.443 103.811 153.606 103.023 153.932 102.341C154.261 101.655 154.72 101.121 155.307 100.739C155.898 100.352 156.587 100.159 157.375 100.159C157.83 100.159 158.278 100.235 158.722 100.386C159.165 100.538 159.568 100.784 159.932 101.125C160.295 101.462 160.585 101.909 160.801 102.466C161.017 103.023 161.125 103.708 161.125 104.523V105.091H154.398V103.932H159.761C159.761 103.439 159.663 103 159.466 102.614C159.273 102.227 158.996 101.922 158.636 101.699C158.28 101.475 157.86 101.364 157.375 101.364C156.841 101.364 156.379 101.496 155.989 101.761C155.602 102.023 155.305 102.364 155.097 102.784C154.888 103.205 154.784 103.655 154.784 104.136V104.909C154.784 105.568 154.898 106.127 155.125 106.585C155.356 107.04 155.676 107.386 156.085 107.625C156.494 107.86 156.97 107.977 157.511 107.977C157.864 107.977 158.182 107.928 158.466 107.83C158.754 107.727 159.002 107.576 159.21 107.375C159.419 107.17 159.58 106.917 159.693 106.614L160.989 106.977C160.852 107.417 160.623 107.803 160.301 108.136C159.979 108.466 159.581 108.723 159.108 108.909C158.634 109.091 158.102 109.182 157.511 109.182ZM166.71 109.182C165.892 109.182 165.188 108.989 164.597 108.602C164.006 108.216 163.551 107.684 163.233 107.006C162.915 106.328 162.756 105.553 162.756 104.682C162.756 103.795 162.919 103.013 163.244 102.335C163.574 101.653 164.032 101.121 164.619 100.739C165.21 100.352 165.9 100.159 166.688 100.159C167.301 100.159 167.854 100.273 168.347 100.5C168.839 100.727 169.242 101.045 169.557 101.455C169.871 101.864 170.066 102.341 170.142 102.886H168.801C168.699 102.489 168.472 102.136 168.119 101.83C167.771 101.519 167.301 101.364 166.71 101.364C166.188 101.364 165.729 101.5 165.335 101.773C164.945 102.042 164.64 102.422 164.42 102.915C164.205 103.403 164.097 103.977 164.097 104.636C164.097 105.311 164.203 105.898 164.415 106.398C164.631 106.898 164.934 107.286 165.324 107.562C165.718 107.839 166.18 107.977 166.71 107.977C167.059 107.977 167.375 107.917 167.659 107.795C167.943 107.674 168.184 107.5 168.381 107.273C168.578 107.045 168.718 106.773 168.801 106.455H170.142C170.066 106.97 169.879 107.434 169.58 107.847C169.284 108.256 168.892 108.581 168.403 108.824C167.919 109.062 167.354 109.182 166.71 109.182ZM175.761 109.182C174.92 109.182 174.195 108.996 173.585 108.625C172.979 108.25 172.511 107.727 172.182 107.057C171.856 106.383 171.693 105.598 171.693 104.705C171.693 103.811 171.856 103.023 172.182 102.341C172.511 101.655 172.97 101.121 173.557 100.739C174.148 100.352 174.837 100.159 175.625 100.159C176.08 100.159 176.528 100.235 176.972 100.386C177.415 100.538 177.818 100.784 178.182 101.125C178.545 101.462 178.835 101.909 179.051 102.466C179.267 103.023 179.375 103.708 179.375 104.523V105.091H172.648V103.932H178.011C178.011 103.439 177.913 103 177.716 102.614C177.523 102.227 177.246 101.922 176.886 101.699C176.53 101.475 176.11 101.364 175.625 101.364C175.091 101.364 174.629 101.496 174.239 101.761C173.852 102.023 173.555 102.364 173.347 102.784C173.138 103.205 173.034 103.655 173.034 104.136V104.909C173.034 105.568 173.148 106.127 173.375 106.585C173.606 107.04 173.926 107.386 174.335 107.625C174.744 107.86 175.22 107.977 175.761 107.977C176.114 107.977 176.432 107.928 176.716 107.83C177.004 107.727 177.252 107.576 177.46 107.375C177.669 107.17 177.83 106.917 177.943 106.614L179.239 106.977C179.102 107.417 178.873 107.803 178.551 108.136C178.229 108.466 177.831 108.723 177.358 108.909C176.884 109.091 176.352 109.182 175.761 109.182ZM181.597 109V97.3636H182.938V101.659H183.051C183.15 101.508 183.286 101.314 183.46 101.08C183.638 100.841 183.892 100.629 184.222 100.443C184.555 100.254 185.006 100.159 185.574 100.159C186.309 100.159 186.956 100.343 187.517 100.71C188.078 101.078 188.515 101.598 188.83 102.273C189.144 102.947 189.301 103.742 189.301 104.659C189.301 105.583 189.144 106.384 188.83 107.062C188.515 107.737 188.08 108.259 187.523 108.631C186.966 108.998 186.324 109.182 185.597 109.182C185.036 109.182 184.587 109.089 184.25 108.903C183.913 108.714 183.653 108.5 183.472 108.261C183.29 108.019 183.15 107.818 183.051 107.659H182.892V109H181.597ZM182.915 104.636C182.915 105.295 183.011 105.877 183.205 106.381C183.398 106.881 183.68 107.273 184.051 107.557C184.422 107.837 184.877 107.977 185.415 107.977C185.975 107.977 186.443 107.83 186.818 107.534C187.197 107.235 187.481 106.833 187.67 106.33C187.864 105.822 187.96 105.258 187.96 104.636C187.96 104.023 187.866 103.47 187.676 102.977C187.491 102.481 187.208 102.089 186.83 101.801C186.455 101.509 185.983 101.364 185.415 101.364C184.869 101.364 184.411 101.502 184.04 101.778C183.669 102.051 183.388 102.434 183.199 102.926C183.009 103.415 182.915 103.985 182.915 104.636ZM195.011 109.182C194.17 109.182 193.445 108.996 192.835 108.625C192.229 108.25 191.761 107.727 191.432 107.057C191.106 106.383 190.943 105.598 190.943 104.705C190.943 103.811 191.106 103.023 191.432 102.341C191.761 101.655 192.22 101.121 192.807 100.739C193.398 100.352 194.087 100.159 194.875 100.159C195.33 100.159 195.778 100.235 196.222 100.386C196.665 100.538 197.068 100.784 197.432 101.125C197.795 101.462 198.085 101.909 198.301 102.466C198.517 103.023 198.625 103.708 198.625 104.523V105.091H191.898V103.932H197.261C197.261 103.439 197.163 103 196.966 102.614C196.773 102.227 196.496 101.922 196.136 101.699C195.78 101.475 195.36 101.364 194.875 101.364C194.341 101.364 193.879 101.496 193.489 101.761C193.102 102.023 192.805 102.364 192.597 102.784C192.388 103.205 192.284 103.655 192.284 104.136V104.909C192.284 105.568 192.398 106.127 192.625 106.585C192.856 107.04 193.176 107.386 193.585 107.625C193.994 107.86 194.47 107.977 195.011 107.977C195.364 107.977 195.682 107.928 195.966 107.83C196.254 107.727 196.502 107.576 196.71 107.375C196.919 107.17 197.08 106.917 197.193 106.614L198.489 106.977C198.352 107.417 198.123 107.803 197.801 108.136C197.479 108.466 197.081 108.723 196.608 108.909C196.134 109.091 195.602 109.182 195.011 109.182ZM200.665 109V100.273H201.96V101.591H202.051C202.21 101.159 202.498 100.809 202.915 100.54C203.331 100.271 203.801 100.136 204.324 100.136C204.422 100.136 204.545 100.138 204.693 100.142C204.841 100.146 204.953 100.152 205.028 100.159V101.523C204.983 101.511 204.879 101.494 204.716 101.472C204.557 101.445 204.388 101.432 204.21 101.432C203.786 101.432 203.407 101.521 203.074 101.699C202.744 101.873 202.483 102.116 202.29 102.426C202.1 102.733 202.006 103.083 202.006 103.477V109H200.665ZM209.186 109.205C208.633 109.205 208.131 109.1 207.68 108.892C207.23 108.68 206.872 108.375 206.607 107.977C206.341 107.576 206.209 107.091 206.209 106.523C206.209 106.023 206.307 105.617 206.504 105.307C206.701 104.992 206.964 104.746 207.294 104.568C207.624 104.39 207.987 104.258 208.385 104.17C208.786 104.08 209.19 104.008 209.595 103.955C210.125 103.886 210.555 103.835 210.885 103.801C211.218 103.763 211.461 103.701 211.612 103.614C211.768 103.527 211.845 103.375 211.845 103.159V103.114C211.845 102.553 211.692 102.117 211.385 101.807C211.082 101.496 210.622 101.341 210.004 101.341C209.364 101.341 208.862 101.481 208.499 101.761C208.135 102.042 207.879 102.341 207.732 102.659L206.459 102.205C206.686 101.674 206.989 101.261 207.368 100.966C207.75 100.667 208.167 100.458 208.618 100.341C209.072 100.22 209.519 100.159 209.959 100.159C210.239 100.159 210.561 100.193 210.925 100.261C211.292 100.326 211.646 100.46 211.987 100.665C212.332 100.869 212.618 101.178 212.845 101.591C213.072 102.004 213.186 102.557 213.186 103.25V109H211.845V107.818H211.777C211.686 108.008 211.535 108.21 211.322 108.426C211.11 108.642 210.828 108.826 210.476 108.977C210.124 109.129 209.694 109.205 209.186 109.205ZM209.391 108C209.921 108 210.368 107.896 210.732 107.688C211.099 107.479 211.375 107.21 211.561 106.881C211.75 106.551 211.845 106.205 211.845 105.841V104.614C211.788 104.682 211.663 104.744 211.47 104.801C211.281 104.854 211.061 104.902 210.811 104.943C210.565 104.981 210.324 105.015 210.089 105.045C209.858 105.072 209.671 105.095 209.527 105.114C209.179 105.159 208.853 105.233 208.55 105.335C208.25 105.434 208.008 105.583 207.822 105.784C207.641 105.981 207.55 106.25 207.55 106.591C207.55 107.057 207.722 107.409 208.067 107.648C208.415 107.883 208.857 108 209.391 108ZM209.436 99.0909L210.822 96.4545H212.391L210.618 99.0909H209.436ZM221.474 103.75V109H220.134V100.273H221.429V101.636H221.543C221.747 101.193 222.058 100.837 222.474 100.568C222.891 100.295 223.429 100.159 224.088 100.159C224.679 100.159 225.196 100.28 225.639 100.523C226.082 100.761 226.427 101.125 226.673 101.614C226.92 102.098 227.043 102.712 227.043 103.455V109H225.702V103.545C225.702 102.86 225.524 102.326 225.168 101.943C224.812 101.557 224.323 101.364 223.702 101.364C223.274 101.364 222.891 101.456 222.554 101.642C222.221 101.828 221.957 102.098 221.764 102.455C221.571 102.811 221.474 103.242 221.474 103.75ZM233.038 109.182C232.25 109.182 231.559 108.994 230.964 108.619C230.374 108.244 229.911 107.72 229.578 107.045C229.249 106.371 229.084 105.583 229.084 104.682C229.084 103.773 229.249 102.979 229.578 102.301C229.911 101.623 230.374 101.097 230.964 100.722C231.559 100.347 232.25 100.159 233.038 100.159C233.826 100.159 234.516 100.347 235.107 100.722C235.701 101.097 236.163 101.623 236.493 102.301C236.826 102.979 236.993 103.773 236.993 104.682C236.993 105.583 236.826 106.371 236.493 107.045C236.163 107.72 235.701 108.244 235.107 108.619C234.516 108.994 233.826 109.182 233.038 109.182ZM233.038 107.977C233.637 107.977 234.129 107.824 234.516 107.517C234.902 107.21 235.188 106.807 235.374 106.307C235.559 105.807 235.652 105.265 235.652 104.682C235.652 104.098 235.559 103.555 235.374 103.051C235.188 102.547 234.902 102.14 234.516 101.83C234.129 101.519 233.637 101.364 233.038 101.364C232.44 101.364 231.947 101.519 231.561 101.83C231.175 102.14 230.889 102.547 230.703 103.051C230.518 103.555 230.425 104.098 230.425 104.682C230.425 105.265 230.518 105.807 230.703 106.307C230.889 106.807 231.175 107.21 231.561 107.517C231.947 107.824 232.44 107.977 233.038 107.977ZM245.864 100.273L242.636 109H241.273L238.045 100.273H239.5L241.909 107.227H242L244.409 100.273H245.864ZM247.634 109V100.273H248.974V109H247.634ZM248.315 98.8182C248.054 98.8182 247.829 98.7292 247.639 98.5511C247.454 98.3731 247.361 98.1591 247.361 97.9091C247.361 97.6591 247.454 97.4451 247.639 97.267C247.829 97.089 248.054 97 248.315 97C248.577 97 248.8 97.089 248.986 97.267C249.175 97.4451 249.27 97.6591 249.27 97.9091C249.27 98.1591 249.175 98.3731 248.986 98.5511C248.8 98.7292 248.577 98.8182 248.315 98.8182ZM254.726 109.182C253.999 109.182 253.357 108.998 252.8 108.631C252.243 108.259 251.807 107.737 251.493 107.062C251.179 106.384 251.021 105.583 251.021 104.659C251.021 103.742 251.179 102.947 251.493 102.273C251.807 101.598 252.245 101.078 252.805 100.71C253.366 100.343 254.014 100.159 254.749 100.159C255.317 100.159 255.766 100.254 256.095 100.443C256.429 100.629 256.682 100.841 256.857 101.08C257.035 101.314 257.173 101.508 257.271 101.659H257.385V97.3636H258.726V109H257.43V107.659H257.271C257.173 107.818 257.033 108.019 256.851 108.261C256.669 108.5 256.41 108.714 256.072 108.903C255.735 109.089 255.286 109.182 254.726 109.182ZM254.908 107.977C255.446 107.977 255.9 107.837 256.271 107.557C256.643 107.273 256.925 106.881 257.118 106.381C257.311 105.877 257.408 105.295 257.408 104.636C257.408 103.985 257.313 103.415 257.124 102.926C256.934 102.434 256.654 102.051 256.283 101.778C255.911 101.502 255.453 101.364 254.908 101.364C254.339 101.364 253.866 101.509 253.487 101.801C253.112 102.089 252.83 102.481 252.641 102.977C252.455 103.47 252.362 104.023 252.362 104.636C252.362 105.258 252.457 105.822 252.646 106.33C252.839 106.833 253.124 107.235 253.499 107.534C253.877 107.83 254.347 107.977 254.908 107.977ZM263.936 109.205C263.383 109.205 262.881 109.1 262.43 108.892C261.98 108.68 261.622 108.375 261.357 107.977C261.091 107.576 260.959 107.091 260.959 106.523C260.959 106.023 261.057 105.617 261.254 105.307C261.451 104.992 261.714 104.746 262.044 104.568C262.374 104.39 262.737 104.258 263.135 104.17C263.536 104.08 263.94 104.008 264.345 103.955C264.875 103.886 265.305 103.835 265.635 103.801C265.968 103.763 266.211 103.701 266.362 103.614C266.518 103.527 266.595 103.375 266.595 103.159V103.114C266.595 102.553 266.442 102.117 266.135 101.807C265.832 101.496 265.372 101.341 264.754 101.341C264.114 101.341 263.612 101.481 263.249 101.761C262.885 102.042 262.629 102.341 262.482 102.659L261.209 102.205C261.436 101.674 261.739 101.261 262.118 100.966C262.5 100.667 262.917 100.458 263.368 100.341C263.822 100.22 264.269 100.159 264.709 100.159C264.989 100.159 265.311 100.193 265.675 100.261C266.042 100.326 266.396 100.46 266.737 100.665C267.082 100.869 267.368 101.178 267.595 101.591C267.822 102.004 267.936 102.557 267.936 103.25V109H266.595V107.818H266.527C266.436 108.008 266.285 108.21 266.072 108.426C265.86 108.642 265.578 108.826 265.226 108.977C264.874 109.129 264.444 109.205 263.936 109.205ZM264.141 108C264.671 108 265.118 107.896 265.482 107.688C265.849 107.479 266.125 107.21 266.311 106.881C266.5 106.551 266.595 106.205 266.595 105.841V104.614C266.538 104.682 266.413 104.744 266.22 104.801C266.031 104.854 265.811 104.902 265.561 104.943C265.315 104.981 265.074 105.015 264.839 105.045C264.608 105.072 264.421 105.095 264.277 105.114C263.929 105.159 263.603 105.233 263.3 105.335C263 105.434 262.758 105.583 262.572 105.784C262.391 105.981 262.3 106.25 262.3 106.591C262.3 107.057 262.472 107.409 262.817 107.648C263.165 107.883 263.607 108 264.141 108ZM273.679 109.182C272.952 109.182 272.31 108.998 271.753 108.631C271.196 108.259 270.76 107.737 270.446 107.062C270.132 106.384 269.974 105.583 269.974 104.659C269.974 103.742 270.132 102.947 270.446 102.273C270.76 101.598 271.198 101.078 271.759 100.71C272.319 100.343 272.967 100.159 273.702 100.159C274.27 100.159 274.719 100.254 275.048 100.443C275.382 100.629 275.635 100.841 275.81 101.08C275.988 101.314 276.126 101.508 276.224 101.659H276.338V97.3636H277.679V109H276.384V107.659H276.224C276.126 107.818 275.986 108.019 275.804 108.261C275.622 108.5 275.363 108.714 275.026 108.903C274.688 109.089 274.24 109.182 273.679 109.182ZM273.861 107.977C274.399 107.977 274.853 107.837 275.224 107.557C275.596 107.273 275.878 106.881 276.071 106.381C276.264 105.877 276.361 105.295 276.361 104.636C276.361 103.985 276.266 103.415 276.077 102.926C275.887 102.434 275.607 102.051 275.236 101.778C274.865 101.502 274.406 101.364 273.861 101.364C273.293 101.364 272.819 101.509 272.44 101.801C272.065 102.089 271.783 102.481 271.594 102.977C271.408 103.47 271.315 104.023 271.315 104.636C271.315 105.258 271.41 105.822 271.599 106.33C271.793 106.833 272.077 107.235 272.452 107.534C272.83 107.83 273.3 107.977 273.861 107.977ZM283.98 109.182C283.139 109.182 282.414 108.996 281.804 108.625C281.198 108.25 280.73 107.727 280.401 107.057C280.075 106.383 279.912 105.598 279.912 104.705C279.912 103.811 280.075 103.023 280.401 102.341C280.73 101.655 281.188 101.121 281.776 100.739C282.366 100.352 283.056 100.159 283.844 100.159C284.298 100.159 284.747 100.235 285.19 100.386C285.634 100.538 286.037 100.784 286.401 101.125C286.764 101.462 287.054 101.909 287.27 102.466C287.486 103.023 287.594 103.708 287.594 104.523V105.091H280.866V103.932H286.23C286.23 103.439 286.132 103 285.935 102.614C285.741 102.227 285.465 101.922 285.105 101.699C284.749 101.475 284.329 101.364 283.844 101.364C283.31 101.364 282.848 101.496 282.457 101.761C282.071 102.023 281.774 102.364 281.565 102.784C281.357 103.205 281.253 103.655 281.253 104.136V104.909C281.253 105.568 281.366 106.127 281.594 106.585C281.825 107.04 282.145 107.386 282.554 107.625C282.963 107.86 283.438 107.977 283.98 107.977C284.332 107.977 284.651 107.928 284.935 107.83C285.223 107.727 285.471 107.576 285.679 107.375C285.887 107.17 286.048 106.917 286.162 106.614L287.457 106.977C287.321 107.417 287.092 107.803 286.77 108.136C286.448 108.466 286.05 108.723 285.577 108.909C285.103 109.091 284.571 109.182 283.98 109.182ZM295.815 102.227L294.611 102.568C294.535 102.367 294.423 102.172 294.276 101.983C294.132 101.79 293.935 101.631 293.685 101.506C293.435 101.381 293.115 101.318 292.724 101.318C292.19 101.318 291.745 101.441 291.389 101.688C291.037 101.93 290.861 102.239 290.861 102.614C290.861 102.947 290.982 103.21 291.224 103.403C291.467 103.597 291.846 103.758 292.361 103.886L293.656 104.205C294.437 104.394 295.018 104.684 295.401 105.074C295.783 105.46 295.974 105.958 295.974 106.568C295.974 107.068 295.83 107.515 295.543 107.909C295.259 108.303 294.861 108.614 294.349 108.841C293.838 109.068 293.243 109.182 292.565 109.182C291.675 109.182 290.938 108.989 290.355 108.602C289.772 108.216 289.402 107.652 289.247 106.909L290.52 106.591C290.641 107.061 290.87 107.413 291.207 107.648C291.548 107.883 291.993 108 292.543 108C293.168 108 293.664 107.867 294.031 107.602C294.402 107.333 294.588 107.011 294.588 106.636C294.588 106.333 294.482 106.08 294.27 105.875C294.058 105.667 293.732 105.511 293.293 105.409L291.838 105.068C291.039 104.879 290.452 104.585 290.077 104.188C289.705 103.786 289.52 103.284 289.52 102.682C289.52 102.189 289.658 101.754 289.935 101.375C290.215 100.996 290.596 100.699 291.077 100.483C291.562 100.267 292.111 100.159 292.724 100.159C293.588 100.159 294.266 100.348 294.759 100.727C295.255 101.106 295.607 101.606 295.815 102.227ZM306.152 109.182C305.311 109.182 304.586 108.996 303.976 108.625C303.37 108.25 302.902 107.727 302.572 107.057C302.247 106.383 302.084 105.598 302.084 104.705C302.084 103.811 302.247 103.023 302.572 102.341C302.902 101.655 303.36 101.121 303.947 100.739C304.538 100.352 305.228 100.159 306.016 100.159C306.47 100.159 306.919 100.235 307.362 100.386C307.805 100.538 308.209 100.784 308.572 101.125C308.936 101.462 309.226 101.909 309.442 102.466C309.658 103.023 309.766 103.708 309.766 104.523V105.091H303.038V103.932H308.402C308.402 103.439 308.304 103 308.107 102.614C307.913 102.227 307.637 101.922 307.277 101.699C306.921 101.475 306.5 101.364 306.016 101.364C305.482 101.364 305.019 101.496 304.629 101.761C304.243 102.023 303.946 102.364 303.737 102.784C303.529 103.205 303.425 103.655 303.425 104.136V104.909C303.425 105.568 303.538 106.127 303.766 106.585C303.997 107.04 304.317 107.386 304.726 107.625C305.135 107.86 305.61 107.977 306.152 107.977C306.504 107.977 306.822 107.928 307.107 107.83C307.394 107.727 307.643 107.576 307.851 107.375C308.059 107.17 308.22 106.917 308.334 106.614L309.629 106.977C309.493 107.417 309.264 107.803 308.942 108.136C308.62 108.466 308.222 108.723 307.749 108.909C307.275 109.091 306.743 109.182 306.152 109.182ZM312.571 100.273L314.662 103.841L316.753 100.273H318.298L315.48 104.636L318.298 109H316.753L314.662 105.614L312.571 109H311.026L313.798 104.636L311.026 100.273H312.571ZM323.398 109.182C322.58 109.182 321.875 108.989 321.284 108.602C320.693 108.216 320.239 107.684 319.92 107.006C319.602 106.328 319.443 105.553 319.443 104.682C319.443 103.795 319.606 103.013 319.932 102.335C320.261 101.653 320.72 101.121 321.307 100.739C321.898 100.352 322.587 100.159 323.375 100.159C323.989 100.159 324.542 100.273 325.034 100.5C325.527 100.727 325.93 101.045 326.244 101.455C326.559 101.864 326.754 102.341 326.83 102.886H325.489C325.386 102.489 325.159 102.136 324.807 101.83C324.458 101.519 323.989 101.364 323.398 101.364C322.875 101.364 322.417 101.5 322.023 101.773C321.633 102.042 321.328 102.422 321.108 102.915C320.892 103.403 320.784 103.977 320.784 104.636C320.784 105.311 320.89 105.898 321.102 106.398C321.318 106.898 321.621 107.286 322.011 107.562C322.405 107.839 322.867 107.977 323.398 107.977C323.746 107.977 324.062 107.917 324.347 107.795C324.631 107.674 324.871 107.5 325.068 107.273C325.265 107.045 325.405 106.773 325.489 106.455H326.83C326.754 106.97 326.566 107.434 326.267 107.847C325.972 108.256 325.58 108.581 325.091 108.824C324.606 109.062 324.042 109.182 323.398 109.182ZM330.131 97.3636V109H328.79V97.3636H330.131ZM338.087 105.432V100.273H339.428V109H338.087V107.523H337.996C337.791 107.966 337.473 108.343 337.041 108.653C336.609 108.96 336.064 109.114 335.405 109.114C334.859 109.114 334.375 108.994 333.95 108.756C333.526 108.513 333.193 108.15 332.95 107.665C332.708 107.176 332.587 106.561 332.587 105.818V100.273H333.928V105.727C333.928 106.364 334.106 106.871 334.462 107.25C334.821 107.629 335.28 107.818 335.837 107.818C336.17 107.818 336.509 107.733 336.854 107.562C337.202 107.392 337.494 107.131 337.729 106.778C337.967 106.426 338.087 105.977 338.087 105.432ZM348.065 102.227L346.861 102.568C346.785 102.367 346.673 102.172 346.526 101.983C346.382 101.79 346.185 101.631 345.935 101.506C345.685 101.381 345.365 101.318 344.974 101.318C344.44 101.318 343.995 101.441 343.639 101.688C343.287 101.93 343.111 102.239 343.111 102.614C343.111 102.947 343.232 103.21 343.474 103.403C343.717 103.597 344.096 103.758 344.611 103.886L345.906 104.205C346.687 104.394 347.268 104.684 347.651 105.074C348.033 105.46 348.224 105.958 348.224 106.568C348.224 107.068 348.08 107.515 347.793 107.909C347.509 108.303 347.111 108.614 346.599 108.841C346.088 109.068 345.493 109.182 344.815 109.182C343.925 109.182 343.188 108.989 342.605 108.602C342.022 108.216 341.652 107.652 341.497 106.909L342.77 106.591C342.891 107.061 343.12 107.413 343.457 107.648C343.798 107.883 344.243 108 344.793 108C345.418 108 345.914 107.867 346.281 107.602C346.652 107.333 346.838 107.011 346.838 106.636C346.838 106.333 346.732 106.08 346.52 105.875C346.308 105.667 345.982 105.511 345.543 105.409L344.088 105.068C343.289 104.879 342.702 104.585 342.327 104.188C341.955 103.786 341.77 103.284 341.77 102.682C341.77 102.189 341.908 101.754 342.185 101.375C342.465 100.996 342.846 100.699 343.327 100.483C343.812 100.267 344.361 100.159 344.974 100.159C345.838 100.159 346.516 100.348 347.009 100.727C347.505 101.106 347.857 101.606 348.065 102.227ZM350.243 109V100.273H351.584V109H350.243ZM350.925 98.8182C350.663 98.8182 350.438 98.7292 350.249 98.5511C350.063 98.3731 349.97 98.1591 349.97 97.9091C349.97 97.6591 350.063 97.4451 350.249 97.267C350.438 97.089 350.663 97 350.925 97C351.186 97 351.41 97.089 351.595 97.267C351.785 97.4451 351.879 97.6591 351.879 97.9091C351.879 98.1591 351.785 98.3731 351.595 98.5511C351.41 98.7292 351.186 98.8182 350.925 98.8182ZM361.176 100.273L357.949 109H356.585L353.358 100.273H354.812L357.222 107.227H357.312L359.722 100.273H361.176ZM365.249 109.205C364.696 109.205 364.194 109.1 363.743 108.892C363.292 108.68 362.934 108.375 362.669 107.977C362.404 107.576 362.271 107.091 362.271 106.523C362.271 106.023 362.37 105.617 362.567 105.307C362.764 104.992 363.027 104.746 363.357 104.568C363.686 104.39 364.05 104.258 364.447 104.17C364.849 104.08 365.252 104.008 365.658 103.955C366.188 103.886 366.618 103.835 366.947 103.801C367.281 103.763 367.523 103.701 367.675 103.614C367.83 103.527 367.908 103.375 367.908 103.159V103.114C367.908 102.553 367.754 102.117 367.447 101.807C367.144 101.496 366.684 101.341 366.067 101.341C365.427 101.341 364.925 101.481 364.561 101.761C364.197 102.042 363.942 102.341 363.794 102.659L362.521 102.205C362.749 101.674 363.052 101.261 363.43 100.966C363.813 100.667 364.23 100.458 364.68 100.341C365.135 100.22 365.582 100.159 366.021 100.159C366.302 100.159 366.624 100.193 366.987 100.261C367.355 100.326 367.709 100.46 368.05 100.665C368.394 100.869 368.68 101.178 368.908 101.591C369.135 102.004 369.249 102.557 369.249 103.25V109H367.908V107.818H367.839C367.749 108.008 367.597 108.21 367.385 108.426C367.173 108.642 366.891 108.826 366.538 108.977C366.186 109.129 365.756 109.205 365.249 109.205ZM365.453 108C365.983 108 366.43 107.896 366.794 107.688C367.161 107.479 367.438 107.21 367.624 106.881C367.813 106.551 367.908 106.205 367.908 105.841V104.614C367.851 104.682 367.726 104.744 367.533 104.801C367.343 104.854 367.124 104.902 366.874 104.943C366.627 104.981 366.387 105.015 366.152 105.045C365.921 105.072 365.733 105.095 365.589 105.114C365.241 105.159 364.915 105.233 364.612 105.335C364.313 105.434 364.071 105.583 363.885 105.784C363.703 105.981 363.612 106.25 363.612 106.591C363.612 107.057 363.785 107.409 364.129 107.648C364.478 107.883 364.919 108 365.453 108ZM377.878 102.227L376.673 102.568C376.598 102.367 376.486 102.172 376.338 101.983C376.194 101.79 375.997 101.631 375.747 101.506C375.497 101.381 375.177 101.318 374.787 101.318C374.253 101.318 373.808 101.441 373.452 101.688C373.099 101.93 372.923 102.239 372.923 102.614C372.923 102.947 373.045 103.21 373.287 103.403C373.529 103.597 373.908 103.758 374.423 103.886L375.719 104.205C376.499 104.394 377.08 104.684 377.463 105.074C377.846 105.46 378.037 105.958 378.037 106.568C378.037 107.068 377.893 107.515 377.605 107.909C377.321 108.303 376.923 108.614 376.412 108.841C375.901 109.068 375.306 109.182 374.628 109.182C373.738 109.182 373.001 108.989 372.418 108.602C371.834 108.216 371.465 107.652 371.31 106.909L372.582 106.591C372.704 107.061 372.933 107.413 373.27 107.648C373.611 107.883 374.056 108 374.605 108C375.23 108 375.726 107.867 376.094 107.602C376.465 107.333 376.651 107.011 376.651 106.636C376.651 106.333 376.545 106.08 376.332 105.875C376.12 105.667 375.795 105.511 375.355 105.409L373.901 105.068C373.101 104.879 372.514 104.585 372.139 104.188C371.768 103.786 371.582 103.284 371.582 102.682C371.582 102.189 371.721 101.754 371.997 101.375C372.277 100.996 372.658 100.699 373.139 100.483C373.624 100.267 374.173 100.159 374.787 100.159C375.651 100.159 376.329 100.348 376.821 100.727C377.317 101.106 377.67 101.606 377.878 102.227ZM387.851 109.182C387.124 109.182 386.482 108.998 385.925 108.631C385.368 108.259 384.932 107.737 384.618 107.062C384.304 106.384 384.146 105.583 384.146 104.659C384.146 103.742 384.304 102.947 384.618 102.273C384.932 101.598 385.37 101.078 385.93 100.71C386.491 100.343 387.139 100.159 387.874 100.159C388.442 100.159 388.891 100.254 389.22 100.443C389.554 100.629 389.807 100.841 389.982 101.08C390.16 101.314 390.298 101.508 390.396 101.659H390.51V97.3636H391.851V109H390.555V107.659H390.396C390.298 107.818 390.158 108.019 389.976 108.261C389.794 108.5 389.535 108.714 389.197 108.903C388.86 109.089 388.411 109.182 387.851 109.182ZM388.033 107.977C388.571 107.977 389.025 107.837 389.396 107.557C389.768 107.273 390.05 106.881 390.243 106.381C390.436 105.877 390.533 105.295 390.533 104.636C390.533 103.985 390.438 103.415 390.249 102.926C390.059 102.434 389.779 102.051 389.408 101.778C389.036 101.502 388.578 101.364 388.033 101.364C387.464 101.364 386.991 101.509 386.612 101.801C386.237 102.089 385.955 102.481 385.766 102.977C385.58 103.47 385.487 104.023 385.487 104.636C385.487 105.258 385.582 105.822 385.771 106.33C385.964 106.833 386.249 107.235 386.624 107.534C387.002 107.83 387.472 107.977 388.033 107.977ZM397.061 109.205C396.508 109.205 396.006 109.1 395.555 108.892C395.105 108.68 394.747 108.375 394.482 107.977C394.216 107.576 394.084 107.091 394.084 106.523C394.084 106.023 394.182 105.617 394.379 105.307C394.576 104.992 394.839 104.746 395.169 104.568C395.499 104.39 395.862 104.258 396.26 104.17C396.661 104.08 397.065 104.008 397.47 103.955C398 103.886 398.43 103.835 398.76 103.801C399.093 103.763 399.336 103.701 399.487 103.614C399.643 103.527 399.72 103.375 399.72 103.159V103.114C399.72 102.553 399.567 102.117 399.26 101.807C398.957 101.496 398.497 101.341 397.879 101.341C397.239 101.341 396.737 101.481 396.374 101.761C396.01 102.042 395.754 102.341 395.607 102.659L394.334 102.205C394.561 101.674 394.864 101.261 395.243 100.966C395.625 100.667 396.042 100.458 396.493 100.341C396.947 100.22 397.394 100.159 397.834 100.159C398.114 100.159 398.436 100.193 398.8 100.261C399.167 100.326 399.521 100.46 399.862 100.665C400.207 100.869 400.493 101.178 400.72 101.591C400.947 102.004 401.061 102.557 401.061 103.25V109H399.72V107.818H399.652C399.561 108.008 399.41 108.21 399.197 108.426C398.985 108.642 398.703 108.826 398.351 108.977C397.999 109.129 397.569 109.205 397.061 109.205ZM397.266 108C397.796 108 398.243 107.896 398.607 107.688C398.974 107.479 399.25 107.21 399.436 106.881C399.625 106.551 399.72 106.205 399.72 105.841V104.614C399.663 104.682 399.538 104.744 399.345 104.801C399.156 104.854 398.936 104.902 398.686 104.943C398.44 104.981 398.199 105.015 397.964 105.045C397.733 105.072 397.546 105.095 397.402 105.114C397.054 105.159 396.728 105.233 396.425 105.335C396.125 105.434 395.883 105.583 395.697 105.784C395.516 105.981 395.425 106.25 395.425 106.591C395.425 107.057 395.597 107.409 395.942 107.648C396.29 107.883 396.732 108 397.266 108ZM408.19 97.3636H409.872L413.827 107.023H413.963L417.918 97.3636H419.599V109H418.281V100.159H418.168L414.531 109H413.259L409.622 100.159H409.509V109H408.19V97.3636ZM425.902 109.182C425.061 109.182 424.336 108.996 423.726 108.625C423.12 108.25 422.652 107.727 422.322 107.057C421.997 106.383 421.834 105.598 421.834 104.705C421.834 103.811 421.997 103.023 422.322 102.341C422.652 101.655 423.11 101.121 423.697 100.739C424.288 100.352 424.978 100.159 425.766 100.159C426.22 100.159 426.669 100.235 427.112 100.386C427.555 100.538 427.959 100.784 428.322 101.125C428.686 101.462 428.976 101.909 429.192 102.466C429.408 103.023 429.516 103.708 429.516 104.523V105.091H422.788V103.932H428.152C428.152 103.439 428.054 103 427.857 102.614C427.663 102.227 427.387 101.922 427.027 101.699C426.671 101.475 426.25 101.364 425.766 101.364C425.232 101.364 424.769 101.496 424.379 101.761C423.993 102.023 423.696 102.364 423.487 102.784C423.279 103.205 423.175 103.655 423.175 104.136V104.909C423.175 105.568 423.288 106.127 423.516 106.585C423.747 107.04 424.067 107.386 424.476 107.625C424.885 107.86 425.36 107.977 425.902 107.977C426.254 107.977 426.572 107.928 426.857 107.83C427.144 107.727 427.393 107.576 427.601 107.375C427.809 107.17 427.97 106.917 428.084 106.614L429.379 106.977C429.243 107.417 429.014 107.803 428.692 108.136C428.37 108.466 427.972 108.723 427.499 108.909C427.025 109.091 426.493 109.182 425.902 109.182ZM435.351 100.273V101.409H430.828V100.273H435.351ZM432.146 98.1818H433.487V106.5C433.487 106.879 433.542 107.163 433.652 107.352C433.766 107.538 433.91 107.663 434.084 107.727C434.262 107.788 434.449 107.818 434.646 107.818C434.794 107.818 434.915 107.811 435.01 107.795C435.105 107.777 435.18 107.761 435.237 107.75L435.51 108.955C435.419 108.989 435.292 109.023 435.129 109.057C434.966 109.095 434.76 109.114 434.51 109.114C434.131 109.114 433.76 109.032 433.396 108.869C433.036 108.706 432.737 108.458 432.499 108.125C432.264 107.792 432.146 107.371 432.146 106.864V98.1818ZM440.933 109.182C440.092 109.182 439.367 108.996 438.757 108.625C438.151 108.25 437.683 107.727 437.354 107.057C437.028 106.383 436.865 105.598 436.865 104.705C436.865 103.811 437.028 103.023 437.354 102.341C437.683 101.655 438.142 101.121 438.729 100.739C439.32 100.352 440.009 100.159 440.797 100.159C441.251 100.159 441.7 100.235 442.143 100.386C442.587 100.538 442.99 100.784 443.354 101.125C443.717 101.462 444.007 101.909 444.223 102.466C444.439 103.023 444.547 103.708 444.547 104.523V105.091H437.82V103.932H443.183C443.183 103.439 443.085 103 442.888 102.614C442.695 102.227 442.418 101.922 442.058 101.699C441.702 101.475 441.282 101.364 440.797 101.364C440.263 101.364 439.801 101.496 439.411 101.761C439.024 102.023 438.727 102.364 438.518 102.784C438.31 103.205 438.206 103.655 438.206 104.136V104.909C438.206 105.568 438.32 106.127 438.547 106.585C438.778 107.04 439.098 107.386 439.507 107.625C439.916 107.86 440.392 107.977 440.933 107.977C441.286 107.977 441.604 107.928 441.888 107.83C442.176 107.727 442.424 107.576 442.632 107.375C442.84 107.17 443.001 106.917 443.115 106.614L444.411 106.977C444.274 107.417 444.045 107.803 443.723 108.136C443.401 108.466 443.003 108.723 442.53 108.909C442.056 109.091 441.524 109.182 440.933 109.182ZM450.132 109.182C449.344 109.182 448.653 108.994 448.058 108.619C447.467 108.244 447.005 107.72 446.672 107.045C446.342 106.371 446.178 105.583 446.178 104.682C446.178 103.773 446.342 102.979 446.672 102.301C447.005 101.623 447.467 101.097 448.058 100.722C448.653 100.347 449.344 100.159 450.132 100.159C450.92 100.159 451.609 100.347 452.2 100.722C452.795 101.097 453.257 101.623 453.587 102.301C453.92 102.979 454.087 103.773 454.087 104.682C454.087 105.583 453.92 106.371 453.587 107.045C453.257 107.72 452.795 108.244 452.2 108.619C451.609 108.994 450.92 109.182 450.132 109.182ZM450.132 107.977C450.731 107.977 451.223 107.824 451.609 107.517C451.996 107.21 452.282 106.807 452.467 106.307C452.653 105.807 452.746 105.265 452.746 104.682C452.746 104.098 452.653 103.555 452.467 103.051C452.282 102.547 451.996 102.14 451.609 101.83C451.223 101.519 450.731 101.364 450.132 101.364C449.534 101.364 449.041 101.519 448.655 101.83C448.268 102.14 447.982 102.547 447.797 103.051C447.611 103.555 447.518 104.098 447.518 104.682C447.518 105.265 447.611 105.807 447.797 106.307C447.982 106.807 448.268 107.21 448.655 107.517C449.041 107.824 449.534 107.977 450.132 107.977ZM456.134 109V100.273H457.429V101.591H457.52C457.679 101.159 457.967 100.809 458.384 100.54C458.8 100.271 459.27 100.136 459.793 100.136C459.891 100.136 460.014 100.138 460.162 100.142C460.31 100.146 460.421 100.152 460.497 100.159V101.523C460.452 101.511 460.348 101.494 460.185 101.472C460.026 101.445 459.857 101.432 459.679 101.432C459.255 101.432 458.876 101.521 458.543 101.699C458.213 101.873 457.952 102.116 457.759 102.426C457.569 102.733 457.474 103.083 457.474 103.477V109H456.134ZM464.655 109.205C464.102 109.205 463.6 109.1 463.149 108.892C462.698 108.68 462.34 108.375 462.075 107.977C461.81 107.576 461.678 107.091 461.678 106.523C461.678 106.023 461.776 105.617 461.973 105.307C462.17 104.992 462.433 104.746 462.763 104.568C463.092 104.39 463.456 104.258 463.854 104.17C464.255 104.08 464.659 104.008 465.064 103.955C465.594 103.886 466.024 103.835 466.354 103.801C466.687 103.763 466.929 103.701 467.081 103.614C467.236 103.527 467.314 103.375 467.314 103.159V103.114C467.314 102.553 467.161 102.117 466.854 101.807C466.551 101.496 466.09 101.341 465.473 101.341C464.833 101.341 464.331 101.481 463.967 101.761C463.604 102.042 463.348 102.341 463.2 102.659L461.928 102.205C462.155 101.674 462.458 101.261 462.837 100.966C463.219 100.667 463.636 100.458 464.087 100.341C464.541 100.22 464.988 100.159 465.428 100.159C465.708 100.159 466.03 100.193 466.393 100.261C466.761 100.326 467.115 100.46 467.456 100.665C467.801 100.869 468.087 101.178 468.314 101.591C468.541 102.004 468.655 102.557 468.655 103.25V109H467.314V107.818H467.246C467.155 108.008 467.003 108.21 466.791 108.426C466.579 108.642 466.297 108.826 465.945 108.977C465.592 109.129 465.162 109.205 464.655 109.205ZM464.859 108C465.39 108 465.837 107.896 466.2 107.688C466.568 107.479 466.844 107.21 467.03 106.881C467.219 106.551 467.314 106.205 467.314 105.841V104.614C467.257 104.682 467.132 104.744 466.939 104.801C466.75 104.854 466.53 104.902 466.28 104.943C466.034 104.981 465.793 105.015 465.558 105.045C465.327 105.072 465.14 105.095 464.996 105.114C464.647 105.159 464.321 105.233 464.018 105.335C463.719 105.434 463.477 105.583 463.291 105.784C463.109 105.981 463.018 106.25 463.018 106.591C463.018 107.057 463.191 107.409 463.536 107.648C463.884 107.883 464.325 108 464.859 108ZM472.08 109.091C471.799 109.091 471.559 108.991 471.358 108.79C471.157 108.589 471.057 108.348 471.057 108.068C471.057 107.788 471.157 107.547 471.358 107.347C471.559 107.146 471.799 107.045 472.08 107.045C472.36 107.045 472.6 107.146 472.801 107.347C473.002 107.547 473.102 107.788 473.102 108.068C473.102 108.254 473.055 108.424 472.96 108.58C472.869 108.735 472.746 108.86 472.591 108.955C472.439 109.045 472.269 109.091 472.08 109.091Z" fill="#212529"/>
</g>
<defs>
<filter id="filter0_d_2391_2899" x="0" y="0" width="730" height="166" filterUnits="userSpaceOnUse" color-interpolation-filters="sRGB">
<feFlood flood-opacity="0" result="BackgroundImageFix"/>
<feColorMatrix in="SourceAlpha" type="matrix" values="0 0 0 0 0 0 0 0 0 0 0 0 0 0 0 0 0 0 127 0" result="hardAlpha"/>
<feOffset dy="4"/>
<feGaussianBlur stdDeviation="7.5"/>
<feColorMatrix type="matrix" values="0 0 0 0 0.172549 0 0 0 0 0.247059 0 0 0 0 0.345098 0 0 0 0.35 0"/>
<feBlend mode="normal" in2="BackgroundImageFix" result="effect1_dropShadow_2391_2899"/>
<feBlend mode="normal" in="SourceGraphic" in2="effect1_dropShadow_2391_2899" result="shape"/>
</filter>
</defs>
</svg>
