<svg width="79" height="13" viewBox="0 0 79 13" fill="none" xmlns="http://www.w3.org/2000/svg">
<path d="M9.38881 0.863636V12.5H8.02517L1.68426 3.36364H1.57062V12.5H0.161532V0.863636H1.52517L7.88881 10.0227H8.00244V0.863636H9.38881ZM15.572 12.6818C14.7842 12.6818 14.0929 12.4943 13.4982 12.1193C12.9073 11.7443 12.4451 11.2197 12.1118 10.5455C11.7823 9.87121 11.6175 9.08333 11.6175 8.18182C11.6175 7.27273 11.7823 6.47917 12.1118 5.80114C12.4451 5.12311 12.9073 4.59659 13.4982 4.22159C14.0929 3.84659 14.7842 3.65909 15.572 3.65909C16.3599 3.65909 17.0493 3.84659 17.6402 4.22159C18.2349 4.59659 18.697 5.12311 19.0266 5.80114C19.3599 6.47917 19.5266 7.27273 19.5266 8.18182C19.5266 9.08333 19.3599 9.87121 19.0266 10.5455C18.697 11.2197 18.2349 11.7443 17.6402 12.1193C17.0493 12.4943 16.3599 12.6818 15.572 12.6818ZM15.572 11.4773C16.1705 11.4773 16.663 11.3239 17.0493 11.017C17.4357 10.7102 17.7217 10.3068 17.9073 9.80682C18.0929 9.30682 18.1857 8.76515 18.1857 8.18182C18.1857 7.59848 18.0929 7.05492 17.9073 6.55114C17.7217 6.04735 17.4357 5.64015 17.0493 5.32955C16.663 5.01894 16.1705 4.86364 15.572 4.86364C14.9736 4.86364 14.4811 5.01894 14.0948 5.32955C13.7084 5.64015 13.4224 6.04735 13.2368 6.55114C13.0512 7.05492 12.9584 7.59848 12.9584 8.18182C12.9584 8.76515 13.0512 9.30682 13.2368 9.80682C13.4224 10.3068 13.7084 10.7102 14.0948 11.017C14.4811 11.3239 14.9736 11.4773 15.572 11.4773ZM28.3973 3.77273L25.1701 12.5H23.8064L20.5791 3.77273H22.0337L24.4428 10.7273H24.5337L26.9428 3.77273H28.3973ZM30.1672 12.5V3.77273H31.5081V12.5H30.1672ZM30.849 2.31818C30.5877 2.31818 30.3623 2.22917 30.1729 2.05114C29.9873 1.87311 29.8945 1.65909 29.8945 1.40909C29.8945 1.15909 29.9873 0.945076 30.1729 0.767045C30.3623 0.589015 30.5877 0.5 30.849 0.5C31.1104 0.5 31.3339 0.589015 31.5195 0.767045C31.7089 0.945076 31.8036 1.15909 31.8036 1.40909C31.8036 1.65909 31.7089 1.87311 31.5195 2.05114C31.3339 2.22917 31.1104 2.31818 30.849 2.31818ZM37.2595 12.6818C36.5323 12.6818 35.8902 12.4981 35.3334 12.1307C34.7766 11.7595 34.341 11.2367 34.0266 10.5625C33.7122 9.88447 33.555 9.08333 33.555 8.15909C33.555 7.24242 33.7122 6.44697 34.0266 5.77273C34.341 5.09848 34.7785 4.57765 35.3391 4.21023C35.8997 3.8428 36.5474 3.65909 37.2823 3.65909C37.8505 3.65909 38.2993 3.75379 38.6289 3.94318C38.9622 4.12879 39.216 4.34091 39.3902 4.57955C39.5683 4.81439 39.7065 5.00758 39.805 5.15909H39.9186V0.863636H41.2595V12.5H39.9641V11.1591H39.805C39.7065 11.3182 39.5664 11.5189 39.3845 11.7614C39.2027 12 38.9433 12.214 38.6061 12.4034C38.269 12.589 37.8201 12.6818 37.2595 12.6818ZM37.4414 11.4773C37.9792 11.4773 38.4338 11.3371 38.805 11.0568C39.1762 10.7727 39.4584 10.3807 39.6516 9.88068C39.8448 9.37689 39.9414 8.79545 39.9414 8.13636C39.9414 7.48485 39.8467 6.91477 39.6573 6.42614C39.4679 5.93371 39.1876 5.55114 38.8164 5.27841C38.4451 5.00189 37.9868 4.86364 37.4414 4.86364C36.8732 4.86364 36.3997 5.00947 36.0209 5.30114C35.6459 5.58902 35.3637 5.98106 35.1743 6.47727C34.9887 6.9697 34.8959 7.52273 34.8959 8.13636C34.8959 8.75758 34.9906 9.32197 35.18 9.82955C35.3732 10.3333 35.6573 10.7348 36.0323 11.0341C36.4111 11.3295 36.8808 11.4773 37.4414 11.4773ZM46.4698 12.7045C45.9167 12.7045 45.4148 12.6004 44.9641 12.392C44.5133 12.1799 44.1554 11.875 43.8902 11.4773C43.6251 11.0758 43.4925 10.5909 43.4925 10.0227C43.4925 9.52273 43.591 9.11742 43.788 8.80682C43.9849 8.49242 44.2482 8.24621 44.5777 8.06818C44.9073 7.89015 45.2709 7.75758 45.6686 7.67045C46.0701 7.57955 46.4736 7.50758 46.8789 7.45455C47.4092 7.38636 47.8391 7.33523 48.1686 7.30114C48.502 7.26326 48.7444 7.20076 48.8959 7.11364C49.0512 7.02652 49.1289 6.875 49.1289 6.65909V6.61364C49.1289 6.05303 48.9755 5.61742 48.6686 5.30682C48.3656 4.99621 47.9054 4.84091 47.288 4.84091C46.6478 4.84091 46.1459 4.98106 45.7823 5.26136C45.4186 5.54167 45.163 5.84091 45.0152 6.15909L43.7425 5.70455C43.9698 5.17424 44.2728 4.76136 44.6516 4.46591C45.0342 4.16667 45.4508 3.95833 45.9016 3.84091C46.3561 3.7197 46.8031 3.65909 47.2425 3.65909C47.5228 3.65909 47.8448 3.69318 48.2084 3.76136C48.5758 3.82576 48.93 3.96023 49.2709 4.16477C49.6156 4.36932 49.9016 4.67803 50.1289 5.09091C50.3561 5.50379 50.4698 6.05682 50.4698 6.75V12.5H49.1289V11.3182H49.0607C48.9698 11.5076 48.8183 11.7102 48.6061 11.9261C48.394 12.142 48.1118 12.3258 47.7595 12.4773C47.4073 12.6288 46.9773 12.7045 46.4698 12.7045ZM46.6743 11.5C47.2046 11.5 47.6516 11.3958 48.0152 11.1875C48.3826 10.9792 48.6592 10.7102 48.8448 10.3807C49.0342 10.0511 49.1289 9.70455 49.1289 9.34091V8.11364C49.072 8.18182 48.947 8.24432 48.7539 8.30114C48.5645 8.35417 48.3448 8.40151 48.0948 8.44318C47.8486 8.48106 47.608 8.51515 47.3732 8.54545C47.1421 8.57197 46.9546 8.5947 46.8107 8.61364C46.4622 8.65909 46.1364 8.73295 45.8334 8.83523C45.5342 8.93371 45.2917 9.08333 45.1061 9.28409C44.9243 9.48106 44.8334 9.75 44.8334 10.0909C44.8334 10.5568 45.0058 10.9091 45.3505 11.1477C45.6989 11.3826 46.1402 11.5 46.6743 11.5ZM56.2127 12.6818C55.4854 12.6818 54.8434 12.4981 54.2865 12.1307C53.7297 11.7595 53.2941 11.2367 52.9797 10.5625C52.6653 9.88447 52.5081 9.08333 52.5081 8.15909C52.5081 7.24242 52.6653 6.44697 52.9797 5.77273C53.2941 5.09848 53.7316 4.57765 54.2922 4.21023C54.8528 3.8428 55.5005 3.65909 56.2354 3.65909C56.8036 3.65909 57.2524 3.75379 57.582 3.94318C57.9153 4.12879 58.1691 4.34091 58.3434 4.57955C58.5214 4.81439 58.6596 5.00758 58.7581 5.15909H58.8718V0.863636H60.2127V12.5H58.9172V11.1591H58.7581C58.6596 11.3182 58.5195 11.5189 58.3377 11.7614C58.1559 12 57.8964 12.214 57.5593 12.4034C57.2221 12.589 56.7733 12.6818 56.2127 12.6818ZM56.3945 11.4773C56.9324 11.4773 57.3869 11.3371 57.7581 11.0568C58.1293 10.7727 58.4115 10.3807 58.6047 9.88068C58.7979 9.37689 58.8945 8.79545 58.8945 8.13636C58.8945 7.48485 58.7998 6.91477 58.6104 6.42614C58.421 5.93371 58.1407 5.55114 57.7695 5.27841C57.3983 5.00189 56.9399 4.86364 56.3945 4.86364C55.8263 4.86364 55.3528 5.00947 54.974 5.30114C54.599 5.58902 54.3168 5.98106 54.1274 6.47727C53.9418 6.9697 53.849 7.52273 53.849 8.13636C53.849 8.75758 53.9437 9.32197 54.1331 9.82955C54.3263 10.3333 54.6104 10.7348 54.9854 11.0341C55.3642 11.3295 55.8339 11.4773 56.3945 11.4773ZM66.5138 12.6818C65.6729 12.6818 64.9475 12.4962 64.3377 12.125C63.7316 11.75 63.2638 11.2273 62.9343 10.5568C62.6085 9.88258 62.4456 9.09848 62.4456 8.20455C62.4456 7.31061 62.6085 6.52273 62.9343 5.84091C63.2638 5.1553 63.7221 4.62121 64.3093 4.23864C64.9002 3.85227 65.5896 3.65909 66.3774 3.65909C66.832 3.65909 67.2809 3.73485 67.724 3.88636C68.1672 4.03788 68.5706 4.28409 68.9343 4.625C69.2979 4.96212 69.5877 5.40909 69.8036 5.96591C70.0195 6.52273 70.1274 7.20833 70.1274 8.02273V8.59091H63.4002V7.43182H68.7638C68.7638 6.93939 68.6653 6.5 68.4684 6.11364C68.2752 5.72727 67.9987 5.42235 67.6388 5.19886C67.2827 4.97538 66.8623 4.86364 66.3774 4.86364C65.8434 4.86364 65.3812 4.99621 64.9911 5.26136C64.6047 5.52273 64.3074 5.86364 64.099 6.28409C63.8907 6.70455 63.7865 7.1553 63.7865 7.63636V8.40909C63.7865 9.06818 63.9002 9.62689 64.1274 10.0852C64.3585 10.5398 64.6786 10.8864 65.0877 11.125C65.4968 11.3598 65.9721 11.4773 66.5138 11.4773C66.8661 11.4773 67.1843 11.428 67.4684 11.3295C67.7562 11.2273 68.0043 11.0758 68.2127 10.875C68.421 10.6705 68.582 10.4167 68.6956 10.1136L69.9911 10.4773C69.8547 10.9167 69.6255 11.303 69.3036 11.6364C68.9816 11.9659 68.5839 12.2235 68.1104 12.4091C67.6369 12.5909 67.1047 12.6818 66.5138 12.6818ZM78.349 5.72727L77.1445 6.06818C77.0687 5.86742 76.957 5.67235 76.8093 5.48295C76.6653 5.28977 76.4684 5.13068 76.2184 5.00568C75.9684 4.88068 75.6483 4.81818 75.2581 4.81818C74.724 4.81818 74.279 4.94129 73.9229 5.1875C73.5706 5.42992 73.3945 5.73864 73.3945 6.11364C73.3945 6.44697 73.5157 6.71023 73.7581 6.90341C74.0005 7.09659 74.3793 7.25758 74.8945 7.38636L76.1899 7.70455C76.9702 7.89394 77.5517 8.18371 77.9343 8.57386C78.3168 8.96023 78.5081 9.45833 78.5081 10.0682C78.5081 10.5682 78.3642 11.0152 78.0763 11.4091C77.7922 11.803 77.3945 12.1136 76.8831 12.3409C76.3718 12.5682 75.7771 12.6818 75.099 12.6818C74.2089 12.6818 73.4721 12.4886 72.8888 12.1023C72.3055 11.7159 71.9362 11.1515 71.7809 10.4091L73.0536 10.0909C73.1748 10.5606 73.404 10.9129 73.7411 11.1477C74.082 11.3826 74.5271 11.5 75.0763 11.5C75.7013 11.5 76.1975 11.3674 76.5649 11.1023C76.9362 10.8333 77.1218 10.5114 77.1218 10.1364C77.1218 9.83333 77.0157 9.57955 76.8036 9.375C76.5915 9.16667 76.2657 9.01136 75.8263 8.90909L74.3718 8.56818C73.5725 8.37879 72.9854 8.08523 72.6104 7.6875C72.2392 7.28598 72.0536 6.78409 72.0536 6.18182C72.0536 5.68939 72.1918 5.25379 72.4684 4.875C72.7487 4.49621 73.1293 4.19886 73.6104 3.98295C74.0952 3.76705 74.6445 3.65909 75.2581 3.65909C76.1218 3.65909 76.7998 3.84848 77.2922 4.22727C77.7884 4.60606 78.1407 5.10606 78.349 5.72727Z" fill="white"/>
</svg>
